<svg width="24" height="25" viewBox="0 0 24 25" fill="none" xmlns="http://www.w3.org/2000/svg">
<path d="M6.6525 20.86L12 18.046L17.3475 20.857C17.3722 20.8699 17.4001 20.8757 17.4279 20.8737C17.4557 20.8716 17.4824 20.8619 17.505 20.8456C17.5276 20.8292 17.5452 20.8069 17.5558 20.781C17.5664 20.7552 17.5696 20.727 17.565 20.6995L16.545 14.7445L20.8695 10.528C20.8893 10.5084 20.9033 10.4838 20.9098 10.4568C20.9164 10.4298 20.9154 10.4015 20.9068 10.375C20.8983 10.3486 20.8826 10.325 20.8614 10.307C20.8402 10.289 20.8145 10.2772 20.787 10.273L14.808 9.40297L12.135 3.98647C12.1227 3.96111 12.1035 3.93972 12.0797 3.92476C12.0558 3.90979 12.0282 3.90186 12 3.90186C11.9718 3.90186 11.9442 3.90979 11.9203 3.92476C11.8965 3.93972 11.8773 3.96111 11.865 3.98647L9.192 9.40447L3.213 10.2745C3.18553 10.2787 3.15978 10.2905 3.13862 10.3085C3.11745 10.3265 3.10172 10.3501 3.09316 10.3765C3.0846 10.403 3.08356 10.4313 3.09016 10.4583C3.09675 10.4853 3.11072 10.5099 3.1305 10.5295L7.455 14.746L6.4335 20.701C6.42893 20.7285 6.43212 20.7567 6.44272 20.7825C6.45332 20.8084 6.4709 20.8307 6.4935 20.847C6.51609 20.8634 6.5428 20.8731 6.57063 20.8752C6.59845 20.8772 6.62628 20.8714 6.651 20.8585L6.6525 20.86Z" fill="#FC6E07"/>
</svg>
