<svg width="20" height="20" viewBox="0 0 20 20" fill="none" xmlns="http://www.w3.org/2000/svg">
<path d="M4.46431 3.57129H15.5357C16.1287 3.57125 16.6992 3.79811 17.1302 4.20534C17.5612 4.61257 17.82 5.16928 17.8536 5.76129L17.8572 5.89272V14.107C17.8572 14.7 17.6303 15.2705 17.2231 15.7015C16.8159 16.1325 16.2592 16.3913 15.6672 16.4249L15.5357 16.4284H4.46431C3.87136 16.4285 3.30086 16.2016 2.86986 15.7944C2.43886 15.3872 2.18003 14.8304 2.14645 14.2384L2.14288 14.107V5.89272C2.14284 5.29976 2.36971 4.72927 2.77693 4.29827C3.18416 3.86727 3.74088 3.60843 4.33288 3.57486L4.46431 3.57129H15.5357H4.46431ZM16.7857 7.78915L10.2472 11.1891C10.1838 11.2221 10.1146 11.242 10.0434 11.2477C9.97227 11.2535 9.90069 11.245 9.83288 11.2227L9.75288 11.1891L3.21431 7.78915V14.107C3.21432 14.4207 3.33229 14.7229 3.5448 14.9537C3.7573 15.1845 4.04881 15.3269 4.36145 15.3527L4.46431 15.357H15.5357C15.8496 15.357 16.1519 15.2389 16.3827 15.0263C16.6135 14.8136 16.7558 14.5219 16.7815 14.2091L16.7857 14.107V7.78915V7.78915ZM15.5357 4.64272H4.46431C4.15061 4.64273 3.84837 4.7607 3.6176 4.9732C3.38684 5.18571 3.24441 5.47722 3.2186 5.78986L3.21431 5.89272V6.58129L10 10.1099L16.7857 6.58129V5.89272C16.7857 5.5789 16.6676 5.27657 16.455 5.04578C16.2423 4.815 15.9507 4.67265 15.6379 4.647L15.5357 4.64272Z" fill="#0E0417"/>
</svg>
