<svg xmlns="http://www.w3.org/2000/svg" width="1592" height="302" viewBox="0 0 1592 302" fill="none"><rect x="65" width="167" height="130" rx="10" fill="#222222"></rect><path d="M98.5 70.92C98.5 72.3467 98.2067 73.5933 97.62 74.66C97.0467 75.7133 96.2 76.5333 95.08 77.12C93.9733 77.7067 92.6467 78 91.1 78H86.38V63.88H91.1C92.6467 63.88 93.9733 64.1733 95.08 64.76C96.2 65.3333 97.0467 66.1467 97.62 67.2C98.2067 68.2533 98.5 69.4933 98.5 70.92ZM90.92 75.94C92.6133 75.94 93.9133 75.5 94.82 74.62C95.7267 73.74 96.18 72.5067 96.18 70.92C96.18 69.3333 95.7267 68.1 94.82 67.22C93.9133 66.34 92.6133 65.9 90.92 65.9H88.66V75.94H90.92ZM100.474 63.78C100.474 63.3933 100.607 63.0733 100.874 62.82C101.141 62.5667 101.494 62.44 101.934 62.44C102.374 62.44 102.727 62.5667 102.994 62.82C103.274 63.0733 103.414 63.3933 103.414 63.78C103.414 64.1667 103.274 64.48 102.994 64.72C102.727 64.96 102.374 65.08 101.934 65.08C101.494 65.08 101.141 64.96 100.874 64.72C100.607 64.48 100.474 64.1667 100.474 63.78ZM103.074 66.98V78H100.794V66.98H103.074ZM109.453 66.84C110.746 66.84 111.78 67.1733 112.553 67.84C113.34 68.4933 113.82 69.3733 113.993 70.48H111.833C111.74 69.88 111.48 69.4 111.053 69.04C110.64 68.6667 110.086 68.48 109.393 68.48C108.82 68.48 108.373 68.62 108.053 68.9C107.746 69.1667 107.593 69.5333 107.593 70C107.593 70.3467 107.706 70.6267 107.933 70.84C108.16 71.0533 108.44 71.22 108.773 71.34C109.12 71.46 109.606 71.5933 110.233 71.74C111.06 71.9267 111.726 72.12 112.233 72.32C112.753 72.52 113.193 72.84 113.553 73.28C113.926 73.7067 114.113 74.2933 114.113 75.04C114.113 75.96 113.76 76.7067 113.053 77.28C112.36 77.8533 111.42 78.14 110.233 78.14C108.86 78.14 107.746 77.82 106.893 77.18C106.053 76.54 105.546 75.6467 105.373 74.5H107.593C107.66 75.1 107.926 75.5867 108.393 75.96C108.86 76.3333 109.473 76.52 110.233 76.52C110.78 76.52 111.206 76.38 111.513 76.1C111.833 75.8067 111.993 75.44 111.993 75C111.993 74.6133 111.873 74.3067 111.633 74.08C111.393 73.8533 111.093 73.68 110.733 73.56C110.373 73.4267 109.88 73.2933 109.253 73.16C108.453 72.9733 107.8 72.7867 107.293 72.6C106.8 72.4133 106.373 72.1133 106.013 71.7C105.666 71.2733 105.493 70.7 105.493 69.98C105.493 69.0467 105.84 68.2933 106.533 67.72C107.24 67.1333 108.213 66.84 109.453 66.84ZM121.3 66.84C122.726 66.84 123.906 67.22 124.84 67.98C125.773 68.7267 126.353 69.7467 126.58 71.04H124.16C124.026 70.3467 123.7 69.8067 123.18 69.42C122.673 69.02 122.033 68.82 121.26 68.82C120.38 68.82 119.646 69.1333 119.06 69.76C118.473 70.3733 118.18 71.28 118.18 72.48C118.18 73.68 118.473 74.5933 119.06 75.22C119.646 75.8467 120.38 76.16 121.26 76.16C122.033 76.16 122.673 75.96 123.18 75.56C123.7 75.16 124.026 74.6133 124.16 73.92H126.58C126.353 75.2133 125.773 76.24 124.84 77C123.906 77.76 122.726 78.14 121.3 78.14C120.233 78.14 119.286 77.9133 118.46 77.46C117.646 77.0067 117.006 76.3533 116.54 75.5C116.073 74.6467 115.84 73.64 115.84 72.48C115.84 71.3333 116.073 70.3333 116.54 69.48C117.006 68.6267 117.646 67.9733 118.46 67.52C119.286 67.0667 120.233 66.84 121.3 66.84ZM133.822 66.84C134.889 66.84 135.849 67.0667 136.702 67.52C137.556 67.9733 138.222 68.6267 138.702 69.48C139.182 70.3333 139.422 71.3333 139.422 72.48C139.422 73.64 139.182 74.6467 138.702 75.5C138.222 76.3533 137.556 77.0067 136.702 77.46C135.849 77.9133 134.889 78.14 133.822 78.14C132.756 78.14 131.796 77.9133 130.942 77.46C130.102 77.0067 129.436 76.3533 128.942 75.5C128.462 74.6333 128.222 73.6267 128.222 72.48C128.222 71.3333 128.462 70.3333 128.942 69.48C129.436 68.6267 130.102 67.9733 130.942 67.52C131.796 67.0667 132.756 66.84 133.822 66.84ZM133.822 68.82C133.236 68.82 132.696 68.9533 132.202 69.22C131.709 69.4867 131.309 69.9 131.002 70.46C130.709 71.0067 130.562 71.68 130.562 72.48C130.562 73.2933 130.709 73.9733 131.002 74.52C131.309 75.0667 131.709 75.4733 132.202 75.74C132.696 76.0067 133.236 76.14 133.822 76.14C134.409 76.14 134.949 76.0067 135.442 75.74C135.936 75.4733 136.329 75.0667 136.622 74.52C136.929 73.9733 137.082 73.2933 137.082 72.48C137.082 71.68 136.929 71.0067 136.622 70.46C136.329 69.9 135.936 69.4867 135.442 69.22C134.949 68.9533 134.409 68.82 133.822 68.82ZM146.134 75.64L149.254 66.98H151.694L147.494 78H144.734L140.534 66.98H142.974L146.134 75.64ZM163.612 71.96C163.612 72.3333 163.586 72.66 163.532 72.94H155.052C155.092 74.0733 155.406 74.9133 155.992 75.46C156.579 76.0067 157.306 76.28 158.172 76.28C158.932 76.28 159.572 76.0867 160.092 75.7C160.626 75.3133 160.952 74.8 161.072 74.16H163.512C163.366 74.9333 163.059 75.62 162.592 76.22C162.126 76.82 161.519 77.2933 160.772 77.64C160.026 77.9733 159.192 78.14 158.272 78.14C157.206 78.14 156.259 77.9133 155.432 77.46C154.619 77.0067 153.979 76.3533 153.512 75.5C153.046 74.6467 152.812 73.64 152.812 72.48C152.812 71.3333 153.046 70.3333 153.512 69.48C153.979 68.6267 154.619 67.9733 155.432 67.52C156.259 67.0667 157.206 66.84 158.272 66.84C159.352 66.84 160.292 67.0667 161.092 67.52C161.906 67.96 162.526 68.5733 162.952 69.36C163.392 70.1333 163.612 71 163.612 71.96ZM161.312 71.9C161.339 71.18 161.212 70.58 160.932 70.1C160.666 69.6067 160.292 69.2467 159.812 69.02C159.346 68.78 158.832 68.66 158.272 68.66C157.379 68.66 156.632 68.9333 156.032 69.48C155.432 70.0267 155.106 70.8333 155.052 71.9H161.312ZM168.094 69.14C168.467 68.42 169 67.8533 169.694 67.44C170.387 67.0133 171.187 66.8 172.094 66.8V69.28H171.414C170.414 69.28 169.607 69.5267 168.994 70.02C168.394 70.5 168.094 71.3 168.094 72.42V78H165.814V66.98H168.094V69.14ZM188.369 78L185.729 75.02C185.716 75.1533 185.649 75.3867 185.529 75.72C185.343 76.44 184.936 77.0267 184.309 77.48C183.696 77.92 182.963 78.14 182.109 78.14C181.243 78.14 180.483 77.96 179.829 77.6C179.176 77.24 178.669 76.74 178.309 76.1C177.949 75.46 177.769 74.7267 177.769 73.9C177.769 73.06 177.929 72.3333 178.249 71.72C178.583 71.1067 179.029 70.64 179.589 70.32C180.149 70 180.769 69.84 181.449 69.84H181.589L181.329 69.48C181.009 69.08 180.763 68.6867 180.589 68.3C180.416 67.9 180.329 67.4533 180.329 66.96C180.329 66.4 180.469 65.8733 180.749 65.38C181.043 64.8867 181.469 64.4933 182.029 64.2C182.603 63.8933 183.283 63.74 184.069 63.74C185.243 63.74 186.136 64.02 186.749 64.58C187.376 65.14 187.769 65.8467 187.929 66.7C188.049 67.14 188.096 67.6133 188.069 68.12H185.909V67.9C185.909 67.7 185.903 67.5533 185.889 67.46C185.876 66.9 185.709 66.46 185.389 66.14C185.083 65.82 184.656 65.66 184.109 65.66C183.603 65.66 183.203 65.8067 182.909 66.1C182.629 66.3933 182.489 66.7533 182.489 67.18C182.489 67.54 182.556 67.8533 182.689 68.12C182.836 68.3867 183.056 68.7 183.349 69.06L190.709 78H188.369ZM182.129 76.2C182.783 76.2 183.316 75.9933 183.729 75.58C184.156 75.1667 184.369 74.6333 184.369 73.98C184.369 73.5267 184.249 73.12 184.009 72.76C183.783 72.3867 183.476 72.1 183.089 71.9C182.716 71.6867 182.323 71.58 181.909 71.58C181.269 71.58 180.749 71.78 180.349 72.18C179.949 72.5667 179.749 73.12 179.749 73.84C179.749 74.5733 179.976 75.1533 180.429 75.58C180.896 75.9933 181.463 76.2 182.129 76.2ZM88.66 91.72V96H93.86V97.76H88.66V102.14H94.46V104H86.38V89.88H94.46V91.72H88.66ZM110.453 92.8C111.76 92.8 112.8 93.2133 113.573 94.04C114.36 94.8667 114.753 96.0467 114.753 97.58V104H112.473V97.82C112.473 96.86 112.233 96.12 111.753 95.6C111.273 95.0667 110.613 94.8 109.773 94.8C108.88 94.8 108.166 95.0867 107.633 95.66C107.113 96.22 106.853 97.0467 106.853 98.14V104H104.573V97.82C104.573 96.86 104.333 96.12 103.853 95.6C103.373 95.0667 102.713 94.8 101.873 94.8C100.98 94.8 100.266 95.0867 99.733 95.66C99.213 96.22 98.953 97.0467 98.953 98.14V104H96.673V92.98H98.953V95.28C99.233 94.48 99.6996 93.8667 100.353 93.44C101.006 93.0133 101.773 92.8 102.653 92.8C103.573 92.8 104.366 93.0267 105.033 93.48C105.713 93.9333 106.206 94.5867 106.513 95.44C106.833 94.6133 107.346 93.9667 108.053 93.5C108.76 93.0333 109.56 92.8 110.453 92.8ZM123.735 92.84C124.695 92.84 125.548 93.0667 126.295 93.52C127.055 93.9733 127.648 94.6267 128.075 95.48C128.502 96.3333 128.715 97.3333 128.715 98.48C128.715 99.64 128.502 100.647 128.075 101.5C127.648 102.353 127.055 103.007 126.295 103.46C125.548 103.913 124.695 104.14 123.735 104.14C122.735 104.14 121.882 103.893 121.175 103.4C120.468 102.907 119.975 102.253 119.695 101.44V109.24H117.415V92.98H119.695V95.54C119.975 94.7267 120.468 94.0733 121.175 93.58C121.882 93.0867 122.735 92.84 123.735 92.84ZM123.035 94.84C122.395 94.84 121.822 94.9933 121.315 95.3C120.808 95.5933 120.408 96.02 120.115 96.58C119.822 97.1267 119.675 97.76 119.675 98.48C119.675 99.2133 119.822 99.8533 120.115 100.4C120.408 100.947 120.808 101.373 121.315 101.68C121.822 101.973 122.395 102.12 123.035 102.12C124.048 102.12 124.862 101.8 125.475 101.16C126.088 100.507 126.395 99.6133 126.395 98.48C126.395 97.36 126.088 96.4733 125.475 95.82C124.862 95.1667 124.048 94.84 123.035 94.84ZM135.331 92.84C136.331 92.84 137.185 93.0867 137.891 93.58C138.598 94.0733 139.098 94.7267 139.391 95.54V92.98H141.671V104H139.391V101.44C139.098 102.253 138.598 102.907 137.891 103.4C137.185 103.893 136.331 104.14 135.331 104.14C134.371 104.14 133.511 103.913 132.751 103.46C132.005 103.007 131.418 102.353 130.991 101.5C130.565 100.647 130.351 99.64 130.351 98.48C130.351 97.3333 130.565 96.3333 130.991 95.48C131.418 94.6267 132.005 93.9733 132.751 93.52C133.511 93.0667 134.371 92.84 135.331 92.84ZM136.031 94.84C135.018 94.84 134.205 95.1667 133.591 95.82C132.991 96.46 132.691 97.3467 132.691 98.48C132.691 99.6133 132.991 100.507 133.591 101.16C134.205 101.8 135.018 102.12 136.031 102.12C136.671 102.12 137.245 101.973 137.751 101.68C138.258 101.373 138.658 100.947 138.951 100.4C139.245 99.8533 139.391 99.2133 139.391 98.48C139.391 97.76 139.245 97.1267 138.951 96.58C138.658 96.02 138.258 95.5933 137.751 95.3C137.245 94.9933 136.671 94.84 136.031 94.84ZM149.947 102.02V104H148.547C147.374 104 146.481 103.72 145.867 103.16C145.267 102.587 144.967 101.64 144.967 100.32V94.92H143.387V92.98H144.967V90.24H147.267V92.98H149.927V94.92H147.267V100.36C147.267 100.987 147.381 101.42 147.607 101.66C147.847 101.9 148.261 102.02 148.847 102.02H149.947ZM158.243 92.8C159.523 92.8 160.55 93.2133 161.323 94.04C162.096 94.8667 162.483 96.0467 162.483 97.58V104H160.203V97.82C160.203 96.8333 159.95 96.0733 159.443 95.54C158.936 94.9933 158.243 94.72 157.363 94.72C156.456 94.72 155.73 95.0133 155.183 95.6C154.636 96.1733 154.363 97.02 154.363 98.14V104H152.083V89.2H154.363V95.4C154.656 94.5733 155.15 93.9333 155.843 93.48C156.536 93.0267 157.336 92.8 158.243 92.8ZM164.83 89.78C164.83 89.3933 164.963 89.0733 165.23 88.82C165.496 88.5667 165.85 88.44 166.29 88.44C166.73 88.44 167.083 88.5667 167.35 88.82C167.63 89.0733 167.77 89.3933 167.77 89.78C167.77 90.1667 167.63 90.48 167.35 90.72C167.083 90.96 166.73 91.08 166.29 91.08C165.85 91.08 165.496 90.96 165.23 90.72C164.963 90.48 164.83 90.1667 164.83 89.78ZM167.43 92.98V104H165.15V92.98H167.43ZM175.089 92.84C176.515 92.84 177.695 93.22 178.629 93.98C179.562 94.7267 180.142 95.7467 180.369 97.04H177.949C177.815 96.3467 177.489 95.8067 176.969 95.42C176.462 95.02 175.822 94.82 175.049 94.82C174.169 94.82 173.435 95.1333 172.849 95.76C172.262 96.3733 171.969 97.28 171.969 98.48C171.969 99.68 172.262 100.593 172.849 101.22C173.435 101.847 174.169 102.16 175.049 102.16C175.822 102.16 176.462 101.96 176.969 101.56C177.489 101.16 177.815 100.613 177.949 99.92H180.369C180.142 101.213 179.562 102.24 178.629 103C177.695 103.76 176.515 104.14 175.089 104.14C174.022 104.14 173.075 103.913 172.249 103.46C171.435 103.007 170.795 102.353 170.329 101.5C169.862 100.647 169.629 99.64 169.629 98.48C169.629 97.3333 169.862 96.3333 170.329 95.48C170.795 94.6267 171.435 93.9733 172.249 93.52C173.075 93.0667 174.022 92.84 175.089 92.84Z" fill="white"></path><path d="M86.2 34.52C86.2 32.2133 86.5867 30.4133 87.36 29.12C88.1467 27.8133 89.4933 27.16 91.4 27.16C93.3067 27.16 94.6467 27.8133 95.42 29.12C96.2067 30.4133 96.6 32.2133 96.6 34.52C96.6 36.8533 96.2067 38.68 95.42 40C94.6467 41.3067 93.3067 41.96 91.4 41.96C89.4933 41.96 88.1467 41.3067 87.36 40C86.5867 38.68 86.2 36.8533 86.2 34.52ZM94.36 34.52C94.36 33.44 94.2867 32.5267 94.14 31.78C94.0067 31.0333 93.7267 30.4267 93.3 29.96C92.8733 29.48 92.24 29.24 91.4 29.24C90.56 29.24 89.9267 29.48 89.5 29.96C89.0733 30.4267 88.7867 31.0333 88.64 31.78C88.5067 32.5267 88.44 33.44 88.44 34.52C88.44 35.64 88.5067 36.58 88.64 37.34C88.7733 38.1 89.0533 38.7133 89.48 39.18C89.92 39.6467 90.56 39.88 91.4 39.88C92.24 39.88 92.8733 39.6467 93.3 39.18C93.74 38.7133 94.0267 38.1 94.16 37.34C94.2933 36.58 94.36 35.64 94.36 34.52ZM98.7125 29.5V27.42H102.873V42H100.573V29.5H98.7125Z" fill="#888888"></path><rect x="282" width="167" height="130" rx="10" fill="#222222"></rect><path d="M315.5 70.92C315.5 72.3467 315.207 73.5933 314.62 74.66C314.047 75.7133 313.2 76.5333 312.08 77.12C310.973 77.7067 309.647 78 308.1 78H303.38V63.88H308.1C309.647 63.88 310.973 64.1733 312.08 64.76C313.2 65.3333 314.047 66.1467 314.62 67.2C315.207 68.2533 315.5 69.4933 315.5 70.92ZM307.92 75.94C309.613 75.94 310.913 75.5 311.82 74.62C312.727 73.74 313.18 72.5067 313.18 70.92C313.18 69.3333 312.727 68.1 311.82 67.22C310.913 66.34 309.613 65.9 307.92 65.9H305.66V75.94H307.92ZM328.034 71.96C328.034 72.3333 328.007 72.66 327.954 72.94H319.474C319.514 74.0733 319.827 74.9133 320.414 75.46C321.001 76.0067 321.727 76.28 322.594 76.28C323.354 76.28 323.994 76.0867 324.514 75.7C325.047 75.3133 325.374 74.8 325.494 74.16H327.934C327.787 74.9333 327.481 75.62 327.014 76.22C326.547 76.82 325.941 77.2933 325.194 77.64C324.447 77.9733 323.614 78.14 322.694 78.14C321.627 78.14 320.681 77.9133 319.854 77.46C319.041 77.0067 318.401 76.3533 317.934 75.5C317.467 74.6467 317.234 73.64 317.234 72.48C317.234 71.3333 317.467 70.3333 317.934 69.48C318.401 68.6267 319.041 67.9733 319.854 67.52C320.681 67.0667 321.627 66.84 322.694 66.84C323.774 66.84 324.714 67.0667 325.514 67.52C326.327 67.96 326.947 68.5733 327.374 69.36C327.814 70.1333 328.034 71 328.034 71.96ZM325.734 71.9C325.761 71.18 325.634 70.58 325.354 70.1C325.087 69.6067 324.714 69.2467 324.234 69.02C323.767 68.78 323.254 68.66 322.694 68.66C321.801 68.66 321.054 68.9333 320.454 69.48C319.854 70.0267 319.527 70.8333 319.474 71.9H325.734ZM335.375 64.7C334.482 64.66 333.855 64.8067 333.495 65.14C333.135 65.46 332.955 66.0133 332.955 66.8V66.98H335.375V68.94H332.955V78H330.655V68.94H329.155V66.98H330.655V66.62C330.655 65.2733 331.049 64.2667 331.835 63.6C332.622 62.92 333.802 62.62 335.375 62.7V64.7ZM336.888 63.78C336.888 63.3933 337.021 63.0733 337.288 62.82C337.555 62.5667 337.908 62.44 338.348 62.44C338.788 62.44 339.141 62.5667 339.408 62.82C339.688 63.0733 339.828 63.3933 339.828 63.78C339.828 64.1667 339.688 64.48 339.408 64.72C339.141 64.96 338.788 65.08 338.348 65.08C337.908 65.08 337.555 64.96 337.288 64.72C337.021 64.48 336.888 64.1667 336.888 63.78ZM339.488 66.98V78H337.208V66.98H339.488ZM348.407 66.8C349.687 66.8 350.714 67.2133 351.487 68.04C352.261 68.8667 352.647 70.0467 352.647 71.58V78H350.367V71.82C350.367 70.8333 350.114 70.0733 349.607 69.54C349.101 68.9933 348.407 68.72 347.527 68.72C346.621 68.72 345.894 69.0133 345.347 69.6C344.801 70.1733 344.527 71.02 344.527 72.14V78H342.247V66.98H344.527V69.4C344.821 68.5733 345.314 67.9333 346.007 67.48C346.701 67.0267 347.501 66.8 348.407 66.8ZM365.554 71.96C365.554 72.3333 365.527 72.66 365.474 72.94H356.994C357.034 74.0733 357.347 74.9133 357.934 75.46C358.52 76.0067 359.247 76.28 360.114 76.28C360.874 76.28 361.514 76.0867 362.034 75.7C362.567 75.3133 362.894 74.8 363.014 74.16H365.454C365.307 74.9333 365 75.62 364.534 76.22C364.067 76.82 363.46 77.2933 362.714 77.64C361.967 77.9733 361.134 78.14 360.214 78.14C359.147 78.14 358.2 77.9133 357.374 77.46C356.56 77.0067 355.92 76.3533 355.454 75.5C354.987 74.6467 354.754 73.64 354.754 72.48C354.754 71.3333 354.987 70.3333 355.454 69.48C355.92 68.6267 356.56 67.9733 357.374 67.52C358.2 67.0667 359.147 66.84 360.214 66.84C361.294 66.84 362.234 67.0667 363.034 67.52C363.847 67.96 364.467 68.5733 364.894 69.36C365.334 70.1333 365.554 71 365.554 71.96ZM363.254 71.9C363.28 71.18 363.154 70.58 362.874 70.1C362.607 69.6067 362.234 69.2467 361.754 69.02C361.287 68.78 360.774 68.66 360.214 68.66C359.32 68.66 358.574 68.9333 357.974 69.48C357.374 70.0267 357.047 70.8333 356.994 71.9H363.254ZM382.323 78L379.683 75.02C379.669 75.1533 379.603 75.3867 379.483 75.72C379.296 76.44 378.889 77.0267 378.263 77.48C377.649 77.92 376.916 78.14 376.062 78.14C375.196 78.14 374.436 77.96 373.783 77.6C373.129 77.24 372.623 76.74 372.263 76.1C371.903 75.46 371.722 74.7267 371.722 73.9C371.722 73.06 371.883 72.3333 372.203 71.72C372.536 71.1067 372.983 70.64 373.543 70.32C374.103 70 374.723 69.84 375.403 69.84H375.543L375.283 69.48C374.963 69.08 374.716 68.6867 374.543 68.3C374.369 67.9 374.283 67.4533 374.283 66.96C374.283 66.4 374.423 65.8733 374.703 65.38C374.996 64.8867 375.423 64.4933 375.983 64.2C376.556 63.8933 377.236 63.74 378.023 63.74C379.196 63.74 380.089 64.02 380.703 64.58C381.329 65.14 381.723 65.8467 381.883 66.7C382.003 67.14 382.049 67.6133 382.023 68.12H379.863V67.9C379.863 67.7 379.856 67.5533 379.843 67.46C379.829 66.9 379.663 66.46 379.343 66.14C379.036 65.82 378.609 65.66 378.063 65.66C377.556 65.66 377.156 65.8067 376.863 66.1C376.583 66.3933 376.443 66.7533 376.443 67.18C376.443 67.54 376.509 67.8533 376.643 68.12C376.789 68.3867 377.009 68.7 377.303 69.06L384.663 78H382.323ZM376.083 76.2C376.736 76.2 377.269 75.9933 377.683 75.58C378.109 75.1667 378.323 74.6333 378.323 73.98C378.323 73.5267 378.203 73.12 377.963 72.76C377.736 72.3867 377.429 72.1 377.043 71.9C376.669 71.6867 376.276 71.58 375.863 71.58C375.223 71.58 374.703 71.78 374.303 72.18C373.902 72.5667 373.702 73.12 373.702 73.84C373.702 74.5733 373.929 75.1533 374.383 75.58C374.849 75.9933 375.416 76.2 376.083 76.2ZM305.66 98.52V104H303.38V89.88H308.18C309.807 89.88 311.027 90.2667 311.84 91.04C312.667 91.8133 313.08 92.8733 313.08 94.22C313.08 95.5533 312.66 96.6067 311.82 97.38C310.98 98.14 309.767 98.52 308.18 98.52H305.66ZM307.94 96.66C309.82 96.66 310.76 95.8467 310.76 94.22C310.76 93.42 310.533 92.8133 310.08 92.4C309.64 91.9733 308.927 91.76 307.94 91.76H305.66V96.66H307.94ZM317.359 95.14C317.733 94.42 318.266 93.8533 318.959 93.44C319.653 93.0133 320.453 92.8 321.359 92.8V95.28H320.679C319.679 95.28 318.873 95.5267 318.259 96.02C317.659 96.5 317.359 97.3 317.359 98.42V104H315.079V92.98H317.359V95.14ZM322.748 89.78C322.748 89.3933 322.881 89.0733 323.148 88.82C323.414 88.5667 323.768 88.44 324.208 88.44C324.648 88.44 325.001 88.5667 325.268 88.82C325.548 89.0733 325.688 89.3933 325.688 89.78C325.688 90.1667 325.548 90.48 325.268 90.72C325.001 90.96 324.648 91.08 324.208 91.08C323.768 91.08 323.414 90.96 323.148 90.72C322.881 90.48 322.748 90.1667 322.748 89.78ZM325.348 92.98V104H323.068V92.98H325.348ZM333.147 92.84C334.213 92.84 335.173 93.0667 336.027 93.52C336.88 93.9733 337.547 94.6267 338.027 95.48C338.507 96.3333 338.747 97.3333 338.747 98.48C338.747 99.64 338.507 100.647 338.027 101.5C337.547 102.353 336.88 103.007 336.027 103.46C335.173 103.913 334.213 104.14 333.147 104.14C332.08 104.14 331.12 103.913 330.267 103.46C329.427 103.007 328.76 102.353 328.267 101.5C327.787 100.633 327.547 99.6267 327.547 98.48C327.547 97.3333 327.787 96.3333 328.267 95.48C328.76 94.6267 329.427 93.9733 330.267 93.52C331.12 93.0667 332.08 92.84 333.147 92.84ZM333.147 94.82C332.56 94.82 332.02 94.9533 331.527 95.22C331.033 95.4867 330.633 95.9 330.327 96.46C330.033 97.0067 329.887 97.68 329.887 98.48C329.887 99.2933 330.033 99.9733 330.327 100.52C330.633 101.067 331.033 101.473 331.527 101.74C332.02 102.007 332.56 102.14 333.147 102.14C333.733 102.14 334.273 102.007 334.767 101.74C335.26 101.473 335.653 101.067 335.947 100.52C336.253 99.9733 336.407 99.2933 336.407 98.48C336.407 97.68 336.253 97.0067 335.947 96.46C335.653 95.9 335.26 95.4867 334.767 95.22C334.273 94.9533 333.733 94.82 333.147 94.82ZM343.219 95.14C343.592 94.42 344.125 93.8533 344.819 93.44C345.512 93.0133 346.312 92.8 347.219 92.8V95.28H346.539C345.539 95.28 344.732 95.5267 344.119 96.02C343.519 96.5 343.219 97.3 343.219 98.42V104H340.939V92.98H343.219V95.14ZM348.607 89.78C348.607 89.3933 348.74 89.0733 349.007 88.82C349.274 88.5667 349.627 88.44 350.067 88.44C350.507 88.44 350.86 88.5667 351.127 88.82C351.407 89.0733 351.547 89.3933 351.547 89.78C351.547 90.1667 351.407 90.48 351.127 90.72C350.86 90.96 350.507 91.08 350.067 91.08C349.627 91.08 349.274 90.96 349.007 90.72C348.74 90.48 348.607 90.1667 348.607 89.78ZM351.207 92.98V104H348.927V92.98H351.207ZM359.506 102.02V104H358.106C356.933 104 356.039 103.72 355.426 103.16C354.826 102.587 354.526 101.64 354.526 100.32V94.92H352.946V92.98H354.526V90.24H356.826V92.98H359.486V94.92H356.826V100.36C356.826 100.987 356.939 101.42 357.166 101.66C357.406 101.9 357.819 102.02 358.406 102.02H359.506ZM361.322 89.78C361.322 89.3933 361.455 89.0733 361.722 88.82C361.988 88.5667 362.342 88.44 362.782 88.44C363.222 88.44 363.575 88.5667 363.842 88.82C364.122 89.0733 364.262 89.3933 364.262 89.78C364.262 90.1667 364.122 90.48 363.842 90.72C363.575 90.96 363.222 91.08 362.782 91.08C362.342 91.08 361.988 90.96 361.722 90.72C361.455 90.48 361.322 90.1667 361.322 89.78ZM363.922 92.98V104H361.642V92.98H363.922ZM368.321 102.08H373.981V104H365.801V102.18L371.161 94.9H365.941V92.98H373.781V94.8L368.321 102.08ZM386.1 97.96C386.1 98.3333 386.074 98.66 386.02 98.94H377.54C377.58 100.073 377.894 100.913 378.48 101.46C379.067 102.007 379.794 102.28 380.66 102.28C381.42 102.28 382.06 102.087 382.58 101.7C383.114 101.313 383.44 100.8 383.56 100.16H386C385.854 100.933 385.547 101.62 385.08 102.22C384.614 102.82 384.007 103.293 383.26 103.64C382.514 103.973 381.68 104.14 380.76 104.14C379.694 104.14 378.747 103.913 377.92 103.46C377.107 103.007 376.467 102.353 376 101.5C375.534 100.647 375.3 99.64 375.3 98.48C375.3 97.3333 375.534 96.3333 376 95.48C376.467 94.6267 377.107 93.9733 377.92 93.52C378.747 93.0667 379.694 92.84 380.76 92.84C381.84 92.84 382.78 93.0667 383.58 93.52C384.394 93.96 385.014 94.5733 385.44 95.36C385.88 96.1333 386.1 97 386.1 97.96ZM383.8 97.9C383.827 97.18 383.7 96.58 383.42 96.1C383.154 95.6067 382.78 95.2467 382.3 95.02C381.834 94.78 381.32 94.66 380.76 94.66C379.867 94.66 379.12 94.9333 378.52 95.48C377.92 96.0267 377.594 96.8333 377.54 97.9H383.8Z" fill="white"></path><path d="M303.2 34.52C303.2 32.2133 303.587 30.4133 304.36 29.12C305.147 27.8133 306.493 27.16 308.4 27.16C310.307 27.16 311.647 27.8133 312.42 29.12C313.207 30.4133 313.6 32.2133 313.6 34.52C313.6 36.8533 313.207 38.68 312.42 40C311.647 41.3067 310.307 41.96 308.4 41.96C306.493 41.96 305.147 41.3067 304.36 40C303.587 38.68 303.2 36.8533 303.2 34.52ZM311.36 34.52C311.36 33.44 311.287 32.5267 311.14 31.78C311.007 31.0333 310.727 30.4267 310.3 29.96C309.873 29.48 309.24 29.24 308.4 29.24C307.56 29.24 306.927 29.48 306.5 29.96C306.073 30.4267 305.787 31.0333 305.64 31.78C305.507 32.5267 305.44 33.44 305.44 34.52C305.44 35.64 305.507 36.58 305.64 37.34C305.773 38.1 306.053 38.7133 306.48 39.18C306.92 39.6467 307.56 39.88 308.4 39.88C309.24 39.88 309.873 39.6467 310.3 39.18C310.74 38.7133 311.027 38.1 311.16 37.34C311.293 36.58 311.36 35.64 311.36 34.52ZM317.273 38.9C318.553 37.7933 319.559 36.8867 320.293 36.18C321.039 35.46 321.659 34.7133 322.153 33.94C322.646 33.1667 322.893 32.3933 322.893 31.62C322.893 30.82 322.699 30.1933 322.313 29.74C321.939 29.2867 321.346 29.06 320.533 29.06C319.746 29.06 319.133 29.3133 318.693 29.82C318.266 30.3133 318.039 30.98 318.013 31.82H315.813C315.853 30.3 316.306 29.14 317.173 28.34C318.053 27.5267 319.166 27.12 320.513 27.12C321.966 27.12 323.099 27.52 323.913 28.32C324.739 29.12 325.153 30.1867 325.153 31.52C325.153 32.48 324.906 33.4067 324.413 34.3C323.933 35.18 323.353 35.9733 322.673 36.68C322.006 37.3733 321.153 38.18 320.113 39.1L319.213 39.9H325.553V41.8H315.833V40.14L317.273 38.9Z" fill="#888888"></path><rect x="499" width="167" height="130" rx="10" fill="#222222"></rect><path d="M532.5 70.92C532.5 72.3467 532.207 73.5933 531.62 74.66C531.047 75.7133 530.2 76.5333 529.08 77.12C527.973 77.7067 526.647 78 525.1 78H520.38V63.88H525.1C526.647 63.88 527.973 64.1733 529.08 64.76C530.2 65.3333 531.047 66.1467 531.62 67.2C532.207 68.2533 532.5 69.4933 532.5 70.92ZM524.92 75.94C526.613 75.94 527.913 75.5 528.82 74.62C529.727 73.74 530.18 72.5067 530.18 70.92C530.18 69.3333 529.727 68.1 528.82 67.22C527.913 66.34 526.613 65.9 524.92 65.9H522.66V75.94H524.92ZM545.034 71.96C545.034 72.3333 545.007 72.66 544.954 72.94H536.474C536.514 74.0733 536.827 74.9133 537.414 75.46C538.001 76.0067 538.727 76.28 539.594 76.28C540.354 76.28 540.994 76.0867 541.514 75.7C542.047 75.3133 542.374 74.8 542.494 74.16H544.934C544.787 74.9333 544.481 75.62 544.014 76.22C543.547 76.82 542.941 77.2933 542.194 77.64C541.447 77.9733 540.614 78.14 539.694 78.14C538.627 78.14 537.681 77.9133 536.854 77.46C536.041 77.0067 535.401 76.3533 534.934 75.5C534.467 74.6467 534.234 73.64 534.234 72.48C534.234 71.3333 534.467 70.3333 534.934 69.48C535.401 68.6267 536.041 67.9733 536.854 67.52C537.681 67.0667 538.627 66.84 539.694 66.84C540.774 66.84 541.714 67.0667 542.514 67.52C543.327 67.96 543.947 68.5733 544.374 69.36C544.814 70.1333 545.034 71 545.034 71.96ZM542.734 71.9C542.761 71.18 542.634 70.58 542.354 70.1C542.087 69.6067 541.714 69.2467 541.234 69.02C540.767 68.78 540.254 68.66 539.694 68.66C538.801 68.66 538.054 68.9333 537.454 69.48C536.854 70.0267 536.527 70.8333 536.474 71.9H542.734ZM550.855 66.84C552.149 66.84 553.182 67.1733 553.955 67.84C554.742 68.4933 555.222 69.3733 555.395 70.48H553.235C553.142 69.88 552.882 69.4 552.455 69.04C552.042 68.6667 551.489 68.48 550.795 68.48C550.222 68.48 549.775 68.62 549.455 68.9C549.149 69.1667 548.995 69.5333 548.995 70C548.995 70.3467 549.109 70.6267 549.335 70.84C549.562 71.0533 549.842 71.22 550.175 71.34C550.522 71.46 551.009 71.5933 551.635 71.74C552.462 71.9267 553.129 72.12 553.635 72.32C554.155 72.52 554.595 72.84 554.955 73.28C555.329 73.7067 555.515 74.2933 555.515 75.04C555.515 75.96 555.162 76.7067 554.455 77.28C553.762 77.8533 552.822 78.14 551.635 78.14C550.262 78.14 549.149 77.82 548.295 77.18C547.455 76.54 546.949 75.6467 546.775 74.5H548.995C549.062 75.1 549.329 75.5867 549.795 75.96C550.262 76.3333 550.875 76.52 551.635 76.52C552.182 76.52 552.609 76.38 552.915 76.1C553.235 75.8067 553.395 75.44 553.395 75C553.395 74.6133 553.275 74.3067 553.035 74.08C552.795 73.8533 552.495 73.68 552.135 73.56C551.775 73.4267 551.282 73.2933 550.655 73.16C549.855 72.9733 549.202 72.7867 548.695 72.6C548.202 72.4133 547.775 72.1133 547.415 71.7C547.069 71.2733 546.895 70.7 546.895 69.98C546.895 69.0467 547.242 68.2933 547.935 67.72C548.642 67.1333 549.615 66.84 550.855 66.84ZM557.482 63.78C557.482 63.3933 557.615 63.0733 557.882 62.82C558.149 62.5667 558.502 62.44 558.942 62.44C559.382 62.44 559.735 62.5667 560.002 62.82C560.282 63.0733 560.422 63.3933 560.422 63.78C560.422 64.1667 560.282 64.48 560.002 64.72C559.735 64.96 559.382 65.08 558.942 65.08C558.502 65.08 558.149 64.96 557.882 64.72C557.615 64.48 557.482 64.1667 557.482 63.78ZM560.082 66.98V78H557.802V66.98H560.082ZM567.261 66.84C568.261 66.84 569.114 67.0867 569.821 67.58C570.528 68.0733 571.028 68.7267 571.321 69.54V66.98H573.601V78.12C573.601 79.1467 573.388 80.0533 572.961 80.84C572.548 81.64 571.948 82.2667 571.161 82.72C570.374 83.1733 569.441 83.4 568.361 83.4C566.814 83.4 565.561 83.0333 564.601 82.3C563.654 81.5667 563.061 80.5733 562.821 79.32H565.081C565.268 79.9733 565.628 80.48 566.161 80.84C566.694 81.2133 567.374 81.4 568.201 81.4C569.108 81.4 569.854 81.12 570.441 80.56C571.028 80 571.321 79.1867 571.321 78.12V75.44C571.028 76.2533 570.528 76.9067 569.821 77.4C569.114 77.8933 568.261 78.14 567.261 78.14C566.301 78.14 565.441 77.9133 564.681 77.46C563.934 77.0067 563.348 76.3533 562.921 75.5C562.494 74.6467 562.281 73.64 562.281 72.48C562.281 71.3333 562.494 70.3333 562.921 69.48C563.348 68.6267 563.934 67.9733 564.681 67.52C565.441 67.0667 566.301 66.84 567.261 66.84ZM567.961 68.84C566.948 68.84 566.134 69.1667 565.521 69.82C564.921 70.46 564.621 71.3467 564.621 72.48C564.621 73.6133 564.921 74.5067 565.521 75.16C566.134 75.8 566.948 76.12 567.961 76.12C568.601 76.12 569.174 75.9733 569.681 75.68C570.188 75.3733 570.588 74.9467 570.881 74.4C571.174 73.8533 571.321 73.2133 571.321 72.48C571.321 71.76 571.174 71.1267 570.881 70.58C570.588 70.02 570.188 69.5933 569.681 69.3C569.174 68.9933 568.601 68.84 567.961 68.84ZM582.497 66.8C583.777 66.8 584.804 67.2133 585.577 68.04C586.35 68.8667 586.737 70.0467 586.737 71.58V78H584.457V71.82C584.457 70.8333 584.204 70.0733 583.697 69.54C583.19 68.9933 582.497 68.72 581.617 68.72C580.71 68.72 579.984 69.0133 579.437 69.6C578.89 70.1733 578.617 71.02 578.617 72.14V78H576.337V66.98H578.617V69.4C578.91 68.5733 579.404 67.9333 580.097 67.48C580.79 67.0267 581.59 66.8 582.497 66.8ZM603.971 78L601.331 75.02C601.318 75.1533 601.251 75.3867 601.131 75.72C600.944 76.44 600.538 77.0267 599.911 77.48C599.298 77.92 598.564 78.14 597.711 78.14C596.844 78.14 596.084 77.96 595.431 77.6C594.778 77.24 594.271 76.74 593.911 76.1C593.551 75.46 593.371 74.7267 593.371 73.9C593.371 73.06 593.531 72.3333 593.851 71.72C594.184 71.1067 594.631 70.64 595.191 70.32C595.751 70 596.371 69.84 597.051 69.84H597.191L596.931 69.48C596.611 69.08 596.364 68.6867 596.191 68.3C596.018 67.9 595.931 67.4533 595.931 66.96C595.931 66.4 596.071 65.8733 596.351 65.38C596.644 64.8867 597.071 64.4933 597.631 64.2C598.204 63.8933 598.884 63.74 599.671 63.74C600.844 63.74 601.738 64.02 602.351 64.58C602.978 65.14 603.371 65.8467 603.531 66.7C603.651 67.14 603.698 67.6133 603.671 68.12H601.511V67.9C601.511 67.7 601.504 67.5533 601.491 67.46C601.478 66.9 601.311 66.46 600.991 66.14C600.684 65.82 600.258 65.66 599.711 65.66C599.204 65.66 598.804 65.8067 598.511 66.1C598.231 66.3933 598.091 66.7533 598.091 67.18C598.091 67.54 598.158 67.8533 598.291 68.12C598.438 68.3867 598.658 68.7 598.951 69.06L606.311 78H603.971ZM597.731 76.2C598.384 76.2 598.918 75.9933 599.331 75.58C599.758 75.1667 599.971 74.6333 599.971 73.98C599.971 73.5267 599.851 73.12 599.611 72.76C599.384 72.3867 599.078 72.1 598.691 71.9C598.318 71.6867 597.924 71.58 597.511 71.58C596.871 71.58 596.351 71.78 595.951 72.18C595.551 72.5667 595.351 73.12 595.351 73.84C595.351 74.5733 595.578 75.1533 596.031 75.58C596.498 75.9933 597.064 76.2 597.731 76.2ZM526.68 89.74C528.413 89.74 529.853 90.18 531 91.06C532.147 91.94 532.92 93.1333 533.32 94.64H530.9C530.567 93.7867 530.033 93.1133 529.3 92.62C528.58 92.1133 527.693 91.86 526.64 91.86C525.8 91.86 525.047 92.0667 524.38 92.48C523.727 92.8933 523.207 93.4867 522.82 94.26C522.447 95.02 522.26 95.9133 522.26 96.94C522.26 97.9533 522.447 98.8467 522.82 99.62C523.207 100.38 523.727 100.967 524.38 101.38C525.047 101.793 525.8 102 526.64 102C527.693 102 528.58 101.753 529.3 101.26C530.033 100.753 530.567 100.08 530.9 99.24H533.32C532.92 100.747 532.147 101.94 531 102.82C529.853 103.687 528.413 104.12 526.68 104.12C525.347 104.12 524.167 103.82 523.14 103.22C522.113 102.607 521.32 101.76 520.76 100.68C520.2 99.5867 519.92 98.34 519.92 96.94C519.92 95.54 520.2 94.3 520.76 93.22C521.32 92.1267 522.113 91.2733 523.14 90.66C524.167 90.0467 525.347 89.74 526.68 89.74ZM537.875 95.14C538.248 94.42 538.782 93.8533 539.475 93.44C540.168 93.0133 540.968 92.8 541.875 92.8V95.28H541.195C540.195 95.28 539.388 95.5267 538.775 96.02C538.175 96.5 537.875 97.3 537.875 98.42V104H535.595V92.98H537.875V95.14ZM553.823 97.96C553.823 98.3333 553.796 98.66 553.743 98.94H545.263C545.303 100.073 545.616 100.913 546.203 101.46C546.79 102.007 547.516 102.28 548.383 102.28C549.143 102.28 549.783 102.087 550.303 101.7C550.836 101.313 551.163 100.8 551.283 100.16H553.723C553.576 100.933 553.27 101.62 552.803 102.22C552.336 102.82 551.73 103.293 550.983 103.64C550.236 103.973 549.403 104.14 548.483 104.14C547.416 104.14 546.47 103.913 545.643 103.46C544.83 103.007 544.19 102.353 543.723 101.5C543.256 100.647 543.023 99.64 543.023 98.48C543.023 97.3333 543.256 96.3333 543.723 95.48C544.19 94.6267 544.83 93.9733 545.643 93.52C546.47 93.0667 547.416 92.84 548.483 92.84C549.563 92.84 550.503 93.0667 551.303 93.52C552.116 93.96 552.736 94.5733 553.163 95.36C553.603 96.1333 553.823 97 553.823 97.96ZM551.523 97.9C551.55 97.18 551.423 96.58 551.143 96.1C550.876 95.6067 550.503 95.2467 550.023 95.02C549.556 94.78 549.043 94.66 548.483 94.66C547.59 94.66 546.843 94.9333 546.243 95.48C545.643 96.0267 545.316 96.8333 545.263 97.9H551.523ZM560.445 92.84C561.445 92.84 562.298 93.0867 563.005 93.58C563.711 94.0733 564.211 94.7267 564.505 95.54V92.98H566.785V104H564.505V101.44C564.211 102.253 563.711 102.907 563.005 103.4C562.298 103.893 561.445 104.14 560.445 104.14C559.485 104.14 558.625 103.913 557.865 103.46C557.118 103.007 556.531 102.353 556.105 101.5C555.678 100.647 555.465 99.64 555.465 98.48C555.465 97.3333 555.678 96.3333 556.105 95.48C556.531 94.6267 557.118 93.9733 557.865 93.52C558.625 93.0667 559.485 92.84 560.445 92.84ZM561.145 94.84C560.131 94.84 559.318 95.1667 558.705 95.82C558.105 96.46 557.805 97.3467 557.805 98.48C557.805 99.6133 558.105 100.507 558.705 101.16C559.318 101.8 560.131 102.12 561.145 102.12C561.785 102.12 562.358 101.973 562.865 101.68C563.371 101.373 563.771 100.947 564.065 100.4C564.358 99.8533 564.505 99.2133 564.505 98.48C564.505 97.76 564.358 97.1267 564.065 96.58C563.771 96.02 563.371 95.5933 562.865 95.3C562.358 94.9933 561.785 94.84 561.145 94.84ZM575.061 102.02V104H573.661C572.487 104 571.594 103.72 570.981 103.16C570.381 102.587 570.081 101.64 570.081 100.32V94.92H568.501V92.98H570.081V90.24H572.381V92.98H575.041V94.92H572.381V100.36C572.381 100.987 572.494 101.42 572.721 101.66C572.961 101.9 573.374 102.02 573.961 102.02H575.061ZM587.436 97.96C587.436 98.3333 587.41 98.66 587.356 98.94H578.876C578.916 100.073 579.23 100.913 579.816 101.46C580.403 102.007 581.13 102.28 581.996 102.28C582.756 102.28 583.396 102.087 583.916 101.7C584.45 101.313 584.776 100.8 584.896 100.16H587.336C587.19 100.933 586.883 101.62 586.416 102.22C585.95 102.82 585.343 103.293 584.596 103.64C583.85 103.973 583.016 104.14 582.096 104.14C581.03 104.14 580.083 103.913 579.256 103.46C578.443 103.007 577.803 102.353 577.336 101.5C576.87 100.647 576.636 99.64 576.636 98.48C576.636 97.3333 576.87 96.3333 577.336 95.48C577.803 94.6267 578.443 93.9733 579.256 93.52C580.083 93.0667 581.03 92.84 582.096 92.84C583.176 92.84 584.116 93.0667 584.916 93.52C585.73 93.96 586.35 94.5733 586.776 95.36C587.216 96.1333 587.436 97 587.436 97.96ZM585.136 97.9C585.163 97.18 585.036 96.58 584.756 96.1C584.49 95.6067 584.116 95.2467 583.636 95.02C583.17 94.78 582.656 94.66 582.096 94.66C581.203 94.66 580.456 94.9333 579.856 95.48C579.256 96.0267 578.93 96.8333 578.876 97.9H585.136Z" fill="white"></path><path d="M520.2 34.52C520.2 32.2133 520.587 30.4133 521.36 29.12C522.147 27.8133 523.493 27.16 525.4 27.16C527.307 27.16 528.647 27.8133 529.42 29.12C530.207 30.4133 530.6 32.2133 530.6 34.52C530.6 36.8533 530.207 38.68 529.42 40C528.647 41.3067 527.307 41.96 525.4 41.96C523.493 41.96 522.147 41.3067 521.36 40C520.587 38.68 520.2 36.8533 520.2 34.52ZM528.36 34.52C528.36 33.44 528.287 32.5267 528.14 31.78C528.007 31.0333 527.727 30.4267 527.3 29.96C526.873 29.48 526.24 29.24 525.4 29.24C524.56 29.24 523.927 29.48 523.5 29.96C523.073 30.4267 522.787 31.0333 522.64 31.78C522.507 32.5267 522.44 33.44 522.44 34.52C522.44 35.64 522.507 36.58 522.64 37.34C522.773 38.1 523.053 38.7133 523.48 39.18C523.92 39.6467 524.56 39.88 525.4 39.88C526.24 39.88 526.873 39.6467 527.3 39.18C527.74 38.7133 528.027 38.1 528.16 37.34C528.293 36.58 528.36 35.64 528.36 34.52ZM532.973 31.02C533.053 29.78 533.526 28.8133 534.393 28.12C535.273 27.4267 536.393 27.08 537.753 27.08C538.686 27.08 539.493 27.2467 540.173 27.58C540.853 27.9133 541.366 28.3667 541.713 28.94C542.059 29.5133 542.233 30.16 542.233 30.88C542.233 31.7067 542.013 32.4133 541.573 33C541.133 33.5867 540.606 33.98 539.993 34.18V34.26C540.779 34.5 541.393 34.94 541.833 35.58C542.273 36.2067 542.493 37.0133 542.493 38C542.493 38.7867 542.313 39.4867 541.953 40.1C541.593 40.7133 541.059 41.2 540.353 41.56C539.646 41.9067 538.799 42.08 537.813 42.08C536.373 42.08 535.186 41.7133 534.253 40.98C533.333 40.2333 532.839 39.1667 532.773 37.78H534.973C535.026 38.4867 535.299 39.0667 535.793 39.52C536.286 39.96 536.953 40.18 537.793 40.18C538.606 40.18 539.233 39.96 539.673 39.52C540.113 39.0667 540.333 38.4867 540.333 37.78C540.333 36.8467 540.033 36.1867 539.433 35.8C538.846 35.4 537.939 35.2 536.713 35.2H536.193V33.32H536.733C537.813 33.3067 538.633 33.1267 539.193 32.78C539.766 32.4333 540.053 31.8867 540.053 31.14C540.053 30.5 539.846 29.9933 539.433 29.62C539.019 29.2333 538.433 29.04 537.673 29.04C536.926 29.04 536.346 29.2333 535.933 29.62C535.519 29.9933 535.273 30.46 535.193 31.02H532.973Z" fill="#888888"></path><rect x="716" width="167" height="130" rx="10" fill="#222222"></rect><path d="M749.5 70.92C749.5 72.3467 749.207 73.5933 748.62 74.66C748.047 75.7133 747.2 76.5333 746.08 77.12C744.973 77.7067 743.647 78 742.1 78H737.38V63.88H742.1C743.647 63.88 744.973 64.1733 746.08 64.76C747.2 65.3333 748.047 66.1467 748.62 67.2C749.207 68.2533 749.5 69.4933 749.5 70.92ZM741.92 75.94C743.613 75.94 744.913 75.5 745.82 74.62C746.727 73.74 747.18 72.5067 747.18 70.92C747.18 69.3333 746.727 68.1 745.82 67.22C744.913 66.34 743.613 65.9 741.92 65.9H739.66V75.94H741.92ZM762.034 71.96C762.034 72.3333 762.007 72.66 761.954 72.94H753.474C753.514 74.0733 753.827 74.9133 754.414 75.46C755.001 76.0067 755.727 76.28 756.594 76.28C757.354 76.28 757.994 76.0867 758.514 75.7C759.047 75.3133 759.374 74.8 759.494 74.16H761.934C761.787 74.9333 761.481 75.62 761.014 76.22C760.547 76.82 759.941 77.2933 759.194 77.64C758.447 77.9733 757.614 78.14 756.694 78.14C755.627 78.14 754.681 77.9133 753.854 77.46C753.041 77.0067 752.401 76.3533 751.934 75.5C751.467 74.6467 751.234 73.64 751.234 72.48C751.234 71.3333 751.467 70.3333 751.934 69.48C752.401 68.6267 753.041 67.9733 753.854 67.52C754.681 67.0667 755.627 66.84 756.694 66.84C757.774 66.84 758.714 67.0667 759.514 67.52C760.327 67.96 760.947 68.5733 761.374 69.36C761.814 70.1333 762.034 71 762.034 71.96ZM759.734 71.9C759.761 71.18 759.634 70.58 759.354 70.1C759.087 69.6067 758.714 69.2467 758.234 69.02C757.767 68.78 757.254 68.66 756.694 68.66C755.801 68.66 755.054 68.9333 754.454 69.48C753.854 70.0267 753.527 70.8333 753.474 71.9H759.734ZM768.755 75.64L771.875 66.98H774.315L770.115 78H767.355L763.155 66.98H765.595L768.755 75.64ZM786.233 71.96C786.233 72.3333 786.207 72.66 786.153 72.94H777.673C777.713 74.0733 778.027 74.9133 778.613 75.46C779.2 76.0067 779.927 76.28 780.793 76.28C781.553 76.28 782.193 76.0867 782.713 75.7C783.247 75.3133 783.573 74.8 783.693 74.16H786.133C785.987 74.9333 785.68 75.62 785.213 76.22C784.747 76.82 784.14 77.2933 783.393 77.64C782.647 77.9733 781.813 78.14 780.893 78.14C779.827 78.14 778.88 77.9133 778.053 77.46C777.24 77.0067 776.6 76.3533 776.133 75.5C775.667 74.6467 775.433 73.64 775.433 72.48C775.433 71.3333 775.667 70.3333 776.133 69.48C776.6 68.6267 777.24 67.9733 778.053 67.52C778.88 67.0667 779.827 66.84 780.893 66.84C781.973 66.84 782.913 67.0667 783.713 67.52C784.527 67.96 785.147 68.5733 785.573 69.36C786.013 70.1333 786.233 71 786.233 71.96ZM783.933 71.9C783.96 71.18 783.833 70.58 783.553 70.1C783.287 69.6067 782.913 69.2467 782.433 69.02C781.967 68.78 781.453 68.66 780.893 68.66C780 68.66 779.253 68.9333 778.653 69.48C778.053 70.0267 777.727 70.8333 777.673 71.9H783.933ZM790.715 63.2V78H788.435V63.2H790.715ZM798.514 66.84C799.58 66.84 800.54 67.0667 801.394 67.52C802.247 67.9733 802.914 68.6267 803.394 69.48C803.874 70.3333 804.114 71.3333 804.114 72.48C804.114 73.64 803.874 74.6467 803.394 75.5C802.914 76.3533 802.247 77.0067 801.394 77.46C800.54 77.9133 799.58 78.14 798.514 78.14C797.447 78.14 796.487 77.9133 795.634 77.46C794.794 77.0067 794.127 76.3533 793.634 75.5C793.154 74.6333 792.914 73.6267 792.914 72.48C792.914 71.3333 793.154 70.3333 793.634 69.48C794.127 68.6267 794.794 67.9733 795.634 67.52C796.487 67.0667 797.447 66.84 798.514 66.84ZM798.514 68.82C797.927 68.82 797.387 68.9533 796.894 69.22C796.4 69.4867 796 69.9 795.694 70.46C795.4 71.0067 795.254 71.68 795.254 72.48C795.254 73.2933 795.4 73.9733 795.694 74.52C796 75.0667 796.4 75.4733 796.894 75.74C797.387 76.0067 797.927 76.14 798.514 76.14C799.1 76.14 799.64 76.0067 800.134 75.74C800.627 75.4733 801.02 75.0667 801.314 74.52C801.62 73.9733 801.774 73.2933 801.774 72.48C801.774 71.68 801.62 71.0067 801.314 70.46C801.02 69.9 800.627 69.4867 800.134 69.22C799.64 68.9533 799.1 68.82 798.514 68.82ZM812.626 66.84C813.586 66.84 814.439 67.0667 815.186 67.52C815.946 67.9733 816.539 68.6267 816.966 69.48C817.392 70.3333 817.606 71.3333 817.606 72.48C817.606 73.64 817.392 74.6467 816.966 75.5C816.539 76.3533 815.946 77.0067 815.186 77.46C814.439 77.9133 813.586 78.14 812.626 78.14C811.626 78.14 810.772 77.8933 810.066 77.4C809.359 76.9067 808.866 76.2533 808.586 75.44V83.24H806.306V66.98H808.586V69.54C808.866 68.7267 809.359 68.0733 810.066 67.58C810.772 67.0867 811.626 66.84 812.626 66.84ZM811.926 68.84C811.286 68.84 810.712 68.9933 810.206 69.3C809.699 69.5933 809.299 70.02 809.006 70.58C808.712 71.1267 808.566 71.76 808.566 72.48C808.566 73.2133 808.712 73.8533 809.006 74.4C809.299 74.9467 809.699 75.3733 810.206 75.68C810.712 75.9733 811.286 76.12 811.926 76.12C812.939 76.12 813.752 75.8 814.366 75.16C814.979 74.5067 815.286 73.6133 815.286 72.48C815.286 71.36 814.979 70.4733 814.366 69.82C813.752 69.1667 812.939 68.84 811.926 68.84ZM834.369 78L831.729 75.02C831.716 75.1533 831.649 75.3867 831.529 75.72C831.343 76.44 830.936 77.0267 830.309 77.48C829.696 77.92 828.963 78.14 828.109 78.14C827.243 78.14 826.483 77.96 825.829 77.6C825.176 77.24 824.669 76.74 824.309 76.1C823.949 75.46 823.769 74.7267 823.769 73.9C823.769 73.06 823.929 72.3333 824.249 71.72C824.583 71.1067 825.029 70.64 825.589 70.32C826.149 70 826.769 69.84 827.449 69.84H827.589L827.329 69.48C827.009 69.08 826.763 68.6867 826.589 68.3C826.416 67.9 826.329 67.4533 826.329 66.96C826.329 66.4 826.469 65.8733 826.749 65.38C827.043 64.8867 827.469 64.4933 828.029 64.2C828.603 63.8933 829.283 63.74 830.069 63.74C831.243 63.74 832.136 64.02 832.749 64.58C833.376 65.14 833.769 65.8467 833.929 66.7C834.049 67.14 834.096 67.6133 834.069 68.12H831.909V67.9C831.909 67.7 831.903 67.5533 831.889 67.46C831.876 66.9 831.709 66.46 831.389 66.14C831.083 65.82 830.656 65.66 830.109 65.66C829.603 65.66 829.203 65.8067 828.909 66.1C828.629 66.3933 828.489 66.7533 828.489 67.18C828.489 67.54 828.556 67.8533 828.689 68.12C828.836 68.3867 829.056 68.7 829.349 69.06L836.709 78H834.369ZM828.129 76.2C828.783 76.2 829.316 75.9933 829.729 75.58C830.156 75.1667 830.369 74.6333 830.369 73.98C830.369 73.5267 830.249 73.12 830.009 72.76C829.783 72.3867 829.476 72.1 829.089 71.9C828.716 71.6867 828.323 71.58 827.909 71.58C827.269 71.58 826.749 71.78 826.349 72.18C825.949 72.5667 825.749 73.12 825.749 73.84C825.749 74.5733 825.976 75.1533 826.429 75.58C826.896 75.9933 827.463 76.2 828.129 76.2ZM739.66 89.88V104H737.38V89.88H739.66ZM747.959 102.02V104H746.559C745.386 104 744.492 103.72 743.879 103.16C743.279 102.587 742.979 101.64 742.979 100.32V94.92H741.399V92.98H742.979V90.24H745.279V92.98H747.939V94.92H745.279V100.36C745.279 100.987 745.392 101.42 745.619 101.66C745.859 101.9 746.272 102.02 746.859 102.02H747.959ZM760.335 97.96C760.335 98.3333 760.308 98.66 760.255 98.94H751.775C751.815 100.073 752.128 100.913 752.715 101.46C753.302 102.007 754.028 102.28 754.895 102.28C755.655 102.28 756.295 102.087 756.815 101.7C757.348 101.313 757.675 100.8 757.795 100.16H760.235C760.088 100.933 759.782 101.62 759.315 102.22C758.848 102.82 758.242 103.293 757.495 103.64C756.748 103.973 755.915 104.14 754.995 104.14C753.928 104.14 752.982 103.913 752.155 103.46C751.342 103.007 750.702 102.353 750.235 101.5C749.768 100.647 749.535 99.64 749.535 98.48C749.535 97.3333 749.768 96.3333 750.235 95.48C750.702 94.6267 751.342 93.9733 752.155 93.52C752.982 93.0667 753.928 92.84 754.995 92.84C756.075 92.84 757.015 93.0667 757.815 93.52C758.628 93.96 759.248 94.5733 759.675 95.36C760.115 96.1333 760.335 97 760.335 97.96ZM758.035 97.9C758.062 97.18 757.935 96.58 757.655 96.1C757.388 95.6067 757.015 95.2467 756.535 95.02C756.068 94.78 755.555 94.66 754.995 94.66C754.102 94.66 753.355 94.9333 752.755 95.48C752.155 96.0267 751.828 96.8333 751.775 97.9H758.035ZM764.816 95.14C765.19 94.42 765.723 93.8533 766.416 93.44C767.11 93.0133 767.91 92.8 768.816 92.8V95.28H768.136C767.136 95.28 766.33 95.5267 765.716 96.02C765.116 96.5 764.816 97.3 764.816 98.42V104H762.536V92.98H764.816V95.14ZM774.945 92.84C775.945 92.84 776.798 93.0867 777.505 93.58C778.211 94.0733 778.711 94.7267 779.005 95.54V92.98H781.285V104H779.005V101.44C778.711 102.253 778.211 102.907 777.505 103.4C776.798 103.893 775.945 104.14 774.945 104.14C773.985 104.14 773.125 103.913 772.365 103.46C771.618 103.007 771.031 102.353 770.605 101.5C770.178 100.647 769.965 99.64 769.965 98.48C769.965 97.3333 770.178 96.3333 770.605 95.48C771.031 94.6267 771.618 93.9733 772.365 93.52C773.125 93.0667 773.985 92.84 774.945 92.84ZM775.645 94.84C774.631 94.84 773.818 95.1667 773.205 95.82C772.605 96.46 772.305 97.3467 772.305 98.48C772.305 99.6133 772.605 100.507 773.205 101.16C773.818 101.8 774.631 102.12 775.645 102.12C776.285 102.12 776.858 101.973 777.365 101.68C777.871 101.373 778.271 100.947 778.565 100.4C778.858 99.8533 779.005 99.2133 779.005 98.48C779.005 97.76 778.858 97.1267 778.565 96.58C778.271 96.02 777.871 95.5933 777.365 95.3C776.858 94.9933 776.285 94.84 775.645 94.84ZM789.561 102.02V104H788.161C786.987 104 786.094 103.72 785.481 103.16C784.881 102.587 784.581 101.64 784.581 100.32V94.92H783.001V92.98H784.581V90.24H786.881V92.98H789.541V94.92H786.881V100.36C786.881 100.987 786.994 101.42 787.221 101.66C787.461 101.9 787.874 102.02 788.461 102.02H789.561ZM801.936 97.96C801.936 98.3333 801.91 98.66 801.856 98.94H793.376C793.416 100.073 793.73 100.913 794.316 101.46C794.903 102.007 795.63 102.28 796.496 102.28C797.256 102.28 797.896 102.087 798.416 101.7C798.95 101.313 799.276 100.8 799.396 100.16H801.836C801.69 100.933 801.383 101.62 800.916 102.22C800.45 102.82 799.843 103.293 799.096 103.64C798.35 103.973 797.516 104.14 796.596 104.14C795.53 104.14 794.583 103.913 793.756 103.46C792.943 103.007 792.303 102.353 791.836 101.5C791.37 100.647 791.136 99.64 791.136 98.48C791.136 97.3333 791.37 96.3333 791.836 95.48C792.303 94.6267 792.943 93.9733 793.756 93.52C794.583 93.0667 795.53 92.84 796.596 92.84C797.676 92.84 798.616 93.0667 799.416 93.52C800.23 93.96 800.85 94.5733 801.276 95.36C801.716 96.1333 801.936 97 801.936 97.96ZM799.636 97.9C799.663 97.18 799.536 96.58 799.256 96.1C798.99 95.6067 798.616 95.2467 798.136 95.02C797.67 94.78 797.156 94.66 796.596 94.66C795.703 94.66 794.956 94.9333 794.356 95.48C793.756 96.0267 793.43 96.8333 793.376 97.9H799.636Z" fill="white"></path><path d="M737.2 34.52C737.2 32.2133 737.587 30.4133 738.36 29.12C739.147 27.8133 740.493 27.16 742.4 27.16C744.307 27.16 745.647 27.8133 746.42 29.12C747.207 30.4133 747.6 32.2133 747.6 34.52C747.6 36.8533 747.207 38.68 746.42 40C745.647 41.3067 744.307 41.96 742.4 41.96C740.493 41.96 739.147 41.3067 738.36 40C737.587 38.68 737.2 36.8533 737.2 34.52ZM745.36 34.52C745.36 33.44 745.287 32.5267 745.14 31.78C745.007 31.0333 744.727 30.4267 744.3 29.96C743.873 29.48 743.24 29.24 742.4 29.24C741.56 29.24 740.927 29.48 740.5 29.96C740.073 30.4267 739.787 31.0333 739.64 31.78C739.507 32.5267 739.44 33.44 739.44 34.52C739.44 35.64 739.507 36.58 739.64 37.34C739.773 38.1 740.053 38.7133 740.48 39.18C740.92 39.6467 741.56 39.88 742.4 39.88C743.24 39.88 743.873 39.6467 744.3 39.18C744.74 38.7133 745.027 38.1 745.16 37.34C745.293 36.58 745.36 35.64 745.36 34.52ZM749.733 38.96V37.24L756.453 27.6H759.213V36.98H761.073V38.96H759.213V42H756.973V38.96H749.733ZM757.073 29.92L752.353 36.98H757.073V29.92Z" fill="#888888"></path><rect x="933" width="167" height="130" rx="10" fill="#222222"></rect><path d="M953.74 71.02C953.74 69.66 954.053 68.44 954.68 67.36C955.32 66.28 956.18 65.44 957.26 64.84C958.353 64.2267 959.547 63.92 960.84 63.92C962.32 63.92 963.633 64.2867 964.78 65.02C965.94 65.74 966.78 66.7667 967.3 68.1H964.56C964.2 67.3667 963.7 66.82 963.06 66.46C962.42 66.1 961.68 65.92 960.84 65.92C959.92 65.92 959.1 66.1267 958.38 66.54C957.66 66.9533 957.093 67.5467 956.68 68.32C956.28 69.0933 956.08 69.9933 956.08 71.02C956.08 72.0467 956.28 72.9467 956.68 73.72C957.093 74.4933 957.66 75.0933 958.38 75.52C959.1 75.9333 959.92 76.14 960.84 76.14C961.68 76.14 962.42 75.96 963.06 75.6C963.7 75.24 964.2 74.6933 964.56 73.96H967.3C966.78 75.2933 965.94 76.32 964.78 77.04C963.633 77.76 962.32 78.12 960.84 78.12C959.533 78.12 958.34 77.82 957.26 77.22C956.18 76.6067 955.32 75.76 954.68 74.68C954.053 73.6 953.74 72.38 953.74 71.02ZM974.749 78.18C973.709 78.18 972.769 77.9467 971.929 77.48C971.089 77 970.429 76.3333 969.949 75.48C969.469 74.6133 969.229 73.6133 969.229 72.48C969.229 71.36 969.475 70.3667 969.969 69.5C970.462 68.6333 971.135 67.9667 971.989 67.5C972.842 67.0333 973.795 66.8 974.849 66.8C975.902 66.8 976.855 67.0333 977.709 67.5C978.562 67.9667 979.235 68.6333 979.729 69.5C980.222 70.3667 980.469 71.36 980.469 72.48C980.469 73.6 980.215 74.5933 979.709 75.46C979.202 76.3267 978.509 77 977.629 77.48C976.762 77.9467 975.802 78.18 974.749 78.18ZM974.749 76.2C975.335 76.2 975.882 76.06 976.389 75.78C976.909 75.5 977.329 75.08 977.649 74.52C977.969 73.96 978.129 73.28 978.129 72.48C978.129 71.68 977.975 71.0067 977.669 70.46C977.362 69.9 976.955 69.48 976.449 69.2C975.942 68.92 975.395 68.78 974.809 68.78C974.222 68.78 973.675 68.92 973.169 69.2C972.675 69.48 972.282 69.9 971.989 70.46C971.695 71.0067 971.549 71.68 971.549 72.48C971.549 73.6667 971.849 74.5867 972.449 75.24C973.062 75.88 973.829 76.2 974.749 76.2ZM988.283 66.8C989.149 66.8 989.923 66.98 990.603 67.34C991.296 67.7 991.836 68.2333 992.223 68.94C992.609 69.6467 992.803 70.5 992.803 71.5V78H990.543V71.84C990.543 70.8533 990.296 70.1 989.803 69.58C989.309 69.0467 988.636 68.78 987.783 68.78C986.929 68.78 986.249 69.0467 985.743 69.58C985.249 70.1 985.003 70.8533 985.003 71.84V78H982.723V66.98H985.003V68.24C985.376 67.7867 985.849 67.4333 986.423 67.18C987.009 66.9267 987.629 66.8 988.283 66.8ZM998.371 68.84V74.94C998.371 75.3533 998.464 75.6533 998.651 75.84C998.851 76.0133 999.184 76.1 999.651 76.1H1001.05V78H999.251C998.224 78 997.438 77.76 996.891 77.28C996.344 76.8 996.071 76.02 996.071 74.94V68.84H994.771V66.98H996.071V64.24H998.371V66.98H1001.05V68.84H998.371ZM1013.25 72.22C1013.25 72.6333 1013.23 73.0067 1013.17 73.34H1004.75C1004.82 74.22 1005.15 74.9267 1005.73 75.46C1006.32 75.9933 1007.04 76.26 1007.89 76.26C1009.12 76.26 1009.99 75.7467 1010.49 74.72H1012.95C1012.62 75.7333 1012.01 76.5667 1011.13 77.22C1010.27 77.86 1009.19 78.18 1007.89 78.18C1006.84 78.18 1005.89 77.9467 1005.05 77.48C1004.23 77 1003.57 76.3333 1003.09 75.48C1002.63 74.6133 1002.39 73.6133 1002.39 72.48C1002.39 71.3467 1002.62 70.3533 1003.07 69.5C1003.54 68.6333 1004.19 67.9667 1005.01 67.5C1005.85 67.0333 1006.81 66.8 1007.89 66.8C1008.93 66.8 1009.86 67.0267 1010.67 67.48C1011.49 67.9333 1012.12 68.5733 1012.57 69.4C1013.03 70.2133 1013.25 71.1533 1013.25 72.22ZM1010.87 71.5C1010.86 70.66 1010.56 69.9867 1009.97 69.48C1009.39 68.9733 1008.66 68.72 1007.79 68.72C1007.01 68.72 1006.33 68.9733 1005.77 69.48C1005.21 69.9733 1004.88 70.6467 1004.77 71.5H1010.87ZM1021.06 66.8C1021.92 66.8 1022.7 66.98 1023.38 67.34C1024.07 67.7 1024.61 68.2333 1025 68.94C1025.38 69.6467 1025.58 70.5 1025.58 71.5V78H1023.32V71.84C1023.32 70.8533 1023.07 70.1 1022.58 69.58C1022.08 69.0467 1021.41 68.78 1020.56 68.78C1019.7 68.78 1019.02 69.0467 1018.52 69.58C1018.02 70.1 1017.78 70.8533 1017.78 71.84V78H1015.5V66.98H1017.78V68.24C1018.15 67.7867 1018.62 67.4333 1019.2 67.18C1019.78 66.9267 1020.4 66.8 1021.06 66.8ZM1031.14 68.84V74.94C1031.14 75.3533 1031.24 75.6533 1031.42 75.84C1031.62 76.0133 1031.96 76.1 1032.42 76.1H1033.82V78H1032.02C1031 78 1030.21 77.76 1029.66 77.28C1029.12 76.8 1028.84 76.02 1028.84 74.94V68.84H1027.54V66.98H1028.84V64.24H1031.14V66.98H1033.82V68.84H1031.14ZM964.22 94.24C964.22 94.9467 964.053 95.6133 963.72 96.24C963.387 96.8667 962.853 97.38 962.12 97.78C961.387 98.1667 960.447 98.36 959.3 98.36H956.78V104H954.5V90.1H959.3C960.367 90.1 961.267 90.2867 962 90.66C962.747 91.02 963.3 91.5133 963.66 92.14C964.033 92.7667 964.22 93.4667 964.22 94.24ZM959.3 96.5C960.167 96.5 960.813 96.3067 961.24 95.92C961.667 95.52 961.88 94.96 961.88 94.24C961.88 92.72 961.02 91.96 959.3 91.96H956.78V96.5H959.3ZM971.175 104.18C970.135 104.18 969.195 103.947 968.355 103.48C967.515 103 966.855 102.333 966.375 101.48C965.895 100.613 965.655 99.6133 965.655 98.48C965.655 97.36 965.901 96.3667 966.395 95.5C966.888 94.6333 967.561 93.9667 968.415 93.5C969.268 93.0333 970.221 92.8 971.275 92.8C972.328 92.8 973.281 93.0333 974.135 93.5C974.988 93.9667 975.661 94.6333 976.155 95.5C976.648 96.3667 976.895 97.36 976.895 98.48C976.895 99.6 976.641 100.593 976.135 101.46C975.628 102.327 974.935 103 974.055 103.48C973.188 103.947 972.228 104.18 971.175 104.18ZM971.175 102.2C971.761 102.2 972.308 102.06 972.815 101.78C973.335 101.5 973.755 101.08 974.075 100.52C974.395 99.96 974.555 99.28 974.555 98.48C974.555 97.68 974.401 97.0067 974.095 96.46C973.788 95.9 973.381 95.48 972.875 95.2C972.368 94.92 971.821 94.78 971.235 94.78C970.648 94.78 970.101 94.92 969.595 95.2C969.101 95.48 968.708 95.9 968.415 96.46C968.121 97.0067 967.975 97.68 967.975 98.48C967.975 99.6667 968.275 100.587 968.875 101.24C969.488 101.88 970.255 102.2 971.175 102.2ZM981.428 94.6C981.815 94.0933 982.342 93.6667 983.008 93.32C983.675 92.9733 984.428 92.8 985.268 92.8C986.228 92.8 987.102 93.04 987.888 93.52C988.688 93.9867 989.315 94.6467 989.768 95.5C990.222 96.3533 990.448 97.3333 990.448 98.44C990.448 99.5467 990.222 100.54 989.768 101.42C989.315 102.287 988.688 102.967 987.888 103.46C987.102 103.94 986.228 104.18 985.268 104.18C984.428 104.18 983.682 104.013 983.028 103.68C982.375 103.333 981.842 102.907 981.428 102.4V109.24H979.148V92.98H981.428V94.6ZM988.128 98.44C988.128 97.68 987.968 97.0267 987.648 96.48C987.342 95.92 986.928 95.5 986.408 95.22C985.902 94.9267 985.355 94.78 984.768 94.78C984.195 94.78 983.648 94.9267 983.128 95.22C982.622 95.5133 982.208 95.94 981.888 96.5C981.582 97.06 981.428 97.72 981.428 98.48C981.428 99.24 981.582 99.9067 981.888 100.48C982.208 101.04 982.622 101.467 983.128 101.76C983.648 102.053 984.195 102.2 984.768 102.2C985.355 102.2 985.902 102.053 986.408 101.76C986.928 101.453 987.342 101.013 987.648 100.44C987.968 99.8667 988.128 99.2 988.128 98.44ZM1002.68 92.98V104H1000.4V102.7C1000.04 103.153 999.57 103.513 998.983 103.78C998.41 104.033 997.796 104.16 997.143 104.16C996.276 104.16 995.496 103.98 994.803 103.62C994.123 103.26 993.583 102.727 993.183 102.02C992.796 101.313 992.603 100.46 992.603 99.46V92.98H994.863V99.12C994.863 100.107 995.11 100.867 995.603 101.4C996.096 101.92 996.77 102.18 997.623 102.18C998.476 102.18 999.15 101.92 999.643 101.4C1000.15 100.867 1000.4 100.107 1000.4 99.12V92.98H1002.68ZM1007.97 89.2V104H1005.69V89.2H1007.97ZM1010.2 98.44C1010.2 97.3333 1010.43 96.3533 1010.88 95.5C1011.35 94.6467 1011.98 93.9867 1012.76 93.52C1013.56 93.04 1014.44 92.8 1015.4 92.8C1016.27 92.8 1017.02 92.9733 1017.66 93.32C1018.32 93.6533 1018.84 94.0733 1019.22 94.58V92.98H1021.52V104H1019.22V102.36C1018.84 102.88 1018.31 103.313 1017.64 103.66C1016.98 104.007 1016.22 104.18 1015.36 104.18C1014.42 104.18 1013.55 103.94 1012.76 103.46C1011.98 102.967 1011.35 102.287 1010.88 101.42C1010.43 100.54 1010.2 99.5467 1010.2 98.44ZM1019.22 98.48C1019.22 97.72 1019.06 97.06 1018.74 96.5C1018.44 95.94 1018.03 95.5133 1017.52 95.22C1017.02 94.9267 1016.47 94.78 1015.88 94.78C1015.3 94.78 1014.75 94.9267 1014.24 95.22C1013.74 95.5 1013.32 95.92 1013 96.48C1012.7 97.0267 1012.54 97.68 1012.54 98.44C1012.54 99.2 1012.7 99.8667 1013 100.44C1013.32 101.013 1013.74 101.453 1014.24 101.76C1014.76 102.053 1015.31 102.2 1015.88 102.2C1016.47 102.2 1017.02 102.053 1017.52 101.76C1018.03 101.467 1018.44 101.04 1018.74 100.48C1019.06 99.9067 1019.22 99.24 1019.22 98.48ZM1027.18 94.84V100.94C1027.18 101.353 1027.27 101.653 1027.46 101.84C1027.66 102.013 1027.99 102.1 1028.46 102.1H1029.86V104H1028.06C1027.03 104 1026.25 103.76 1025.7 103.28C1025.15 102.8 1024.88 102.02 1024.88 100.94V94.84H1023.58V92.98H1024.88V90.24H1027.18V92.98H1029.86V94.84H1027.18ZM1033.12 91.52C1032.71 91.52 1032.36 91.38 1032.08 91.1C1031.8 90.82 1031.66 90.4733 1031.66 90.06C1031.66 89.6467 1031.8 89.3 1032.08 89.02C1032.36 88.74 1032.71 88.6 1033.12 88.6C1033.52 88.6 1033.86 88.74 1034.14 89.02C1034.42 89.3 1034.56 89.6467 1034.56 90.06C1034.56 90.4733 1034.42 90.82 1034.14 91.1C1033.86 91.38 1033.52 91.52 1033.12 91.52ZM1034.24 92.98V104H1031.96V92.98H1034.24ZM1042.01 104.18C1040.97 104.18 1040.03 103.947 1039.19 103.48C1038.35 103 1037.69 102.333 1037.21 101.48C1036.73 100.613 1036.49 99.6133 1036.49 98.48C1036.49 97.36 1036.74 96.3667 1037.23 95.5C1037.73 94.6333 1038.4 93.9667 1039.25 93.5C1040.11 93.0333 1041.06 92.8 1042.11 92.8C1043.17 92.8 1044.12 93.0333 1044.97 93.5C1045.83 93.9667 1046.5 94.6333 1046.99 95.5C1047.49 96.3667 1047.73 97.36 1047.73 98.48C1047.73 99.6 1047.48 100.593 1046.97 101.46C1046.47 102.327 1045.77 103 1044.89 103.48C1044.03 103.947 1043.07 104.18 1042.01 104.18ZM1042.01 102.2C1042.6 102.2 1043.15 102.06 1043.65 101.78C1044.17 101.5 1044.59 101.08 1044.91 100.52C1045.23 99.96 1045.39 99.28 1045.39 98.48C1045.39 97.68 1045.24 97.0067 1044.93 96.46C1044.63 95.9 1044.22 95.48 1043.71 95.2C1043.21 94.92 1042.66 94.78 1042.07 94.78C1041.49 94.78 1040.94 94.92 1040.43 95.2C1039.94 95.48 1039.55 95.9 1039.25 96.46C1038.96 97.0067 1038.81 97.68 1038.81 98.48C1038.81 99.6667 1039.11 100.587 1039.71 101.24C1040.33 101.88 1041.09 102.2 1042.01 102.2ZM1055.55 92.8C1056.41 92.8 1057.19 92.98 1057.87 93.34C1058.56 93.7 1059.1 94.2333 1059.49 94.94C1059.87 95.6467 1060.07 96.5 1060.07 97.5V104H1057.81V97.84C1057.81 96.8533 1057.56 96.1 1057.07 95.58C1056.57 95.0467 1055.9 94.78 1055.05 94.78C1054.19 94.78 1053.51 95.0467 1053.01 95.58C1052.51 96.1 1052.27 96.8533 1052.27 97.84V104H1049.99V92.98H1052.27V94.24C1052.64 93.7867 1053.11 93.4333 1053.69 93.18C1054.27 92.9267 1054.89 92.8 1055.55 92.8Z" fill="white"></path><path d="M954.2 34.52C954.2 32.2133 954.587 30.4133 955.36 29.12C956.147 27.8133 957.493 27.16 959.4 27.16C961.307 27.16 962.647 27.8133 963.42 29.12C964.207 30.4133 964.6 32.2133 964.6 34.52C964.6 36.8533 964.207 38.68 963.42 40C962.647 41.3067 961.307 41.96 959.4 41.96C957.493 41.96 956.147 41.3067 955.36 40C954.587 38.68 954.2 36.8533 954.2 34.52ZM962.36 34.52C962.36 33.44 962.287 32.5267 962.14 31.78C962.007 31.0333 961.727 30.4267 961.3 29.96C960.873 29.48 960.24 29.24 959.4 29.24C958.56 29.24 957.927 29.48 957.5 29.96C957.073 30.4267 956.787 31.0333 956.64 31.78C956.507 32.5267 956.44 33.44 956.44 34.52C956.44 35.64 956.507 36.58 956.64 37.34C956.773 38.1 957.053 38.7133 957.48 39.18C957.92 39.6467 958.56 39.88 959.4 39.88C960.24 39.88 960.873 39.6467 961.3 39.18C961.74 38.7133 962.027 38.1 962.16 37.34C962.293 36.58 962.36 35.64 962.36 34.52ZM976.413 29.38H969.713V33.36C969.993 32.9867 970.406 32.6733 970.952 32.42C971.513 32.1667 972.106 32.04 972.733 32.04C973.853 32.04 974.759 32.28 975.453 32.76C976.159 33.24 976.659 33.8467 976.953 34.58C977.259 35.3133 977.413 36.0867 977.413 36.9C977.413 37.8867 977.219 38.7667 976.832 39.54C976.459 40.3 975.893 40.9 975.133 41.34C974.386 41.78 973.466 42 972.373 42C970.919 42 969.753 41.64 968.873 40.92C967.993 40.2 967.466 39.2467 967.293 38.06H969.513C969.659 38.6867 969.986 39.1867 970.493 39.56C970.999 39.92 971.633 40.1 972.393 40.1C973.339 40.1 974.046 39.8133 974.513 39.24C974.993 38.6667 975.233 37.9067 975.233 36.96C975.233 36 974.993 35.2667 974.513 34.76C974.033 34.24 973.326 33.98 972.393 33.98C971.739 33.98 971.186 34.1467 970.733 34.48C970.293 34.8 969.973 35.24 969.773 35.8H967.613V27.38H976.413V29.38Z" fill="#888888"></path><rect x="1150" width="167" height="130" rx="10" fill="#222222"></rect><path d="M1177.92 63.7C1179.23 63.7 1180.41 64.0067 1181.46 64.62C1182.53 65.2333 1183.36 66.0933 1183.96 67.2C1184.57 68.2933 1184.88 69.5333 1184.88 70.92C1184.88 72.3067 1184.57 73.5533 1183.96 74.66C1183.36 75.7533 1182.53 76.6133 1181.46 77.24C1180.41 77.8533 1179.23 78.16 1177.92 78.16C1176.6 78.16 1175.41 77.8533 1174.34 77.24C1173.29 76.6133 1172.45 75.7533 1171.84 74.66C1171.23 73.5533 1170.92 72.3067 1170.92 70.92C1170.92 69.5333 1171.23 68.2933 1171.84 67.2C1172.45 66.0933 1173.29 65.2333 1174.34 64.62C1175.41 64.0067 1176.6 63.7 1177.92 63.7ZM1177.92 65.82C1177.01 65.82 1176.21 66.0267 1175.5 66.44C1174.79 66.8533 1174.24 67.4467 1173.84 68.22C1173.45 68.9933 1173.26 69.8933 1173.26 70.92C1173.26 71.9467 1173.45 72.8467 1173.84 73.62C1174.24 74.3933 1174.79 74.9867 1175.5 75.4C1176.21 75.8133 1177.01 76.02 1177.92 76.02C1178.81 76.02 1179.61 75.8133 1180.3 75.4C1181.01 74.9867 1181.55 74.3933 1181.94 73.62C1182.34 72.8467 1182.54 71.9467 1182.54 70.92C1182.54 69.8933 1182.34 68.9933 1181.94 68.22C1181.55 67.4467 1181.01 66.8533 1180.3 66.44C1179.61 66.0267 1178.81 65.82 1177.92 65.82ZM1193.5 66.84C1194.46 66.84 1195.31 67.0667 1196.06 67.52C1196.82 67.9733 1197.41 68.6267 1197.84 69.48C1198.27 70.3333 1198.48 71.3333 1198.48 72.48C1198.48 73.64 1198.27 74.6467 1197.84 75.5C1197.41 76.3533 1196.82 77.0067 1196.06 77.46C1195.31 77.9133 1194.46 78.14 1193.5 78.14C1192.5 78.14 1191.65 77.8933 1190.94 77.4C1190.23 76.9067 1189.74 76.2533 1189.46 75.44V83.24H1187.18V66.98H1189.46V69.54C1189.74 68.7267 1190.23 68.0733 1190.94 67.58C1191.65 67.0867 1192.5 66.84 1193.5 66.84ZM1192.8 68.84C1192.16 68.84 1191.59 68.9933 1191.08 69.3C1190.57 69.5933 1190.17 70.02 1189.88 70.58C1189.59 71.1267 1189.44 71.76 1189.44 72.48C1189.44 73.2133 1189.59 73.8533 1189.88 74.4C1190.17 74.9467 1190.57 75.3733 1191.08 75.68C1191.59 75.9733 1192.16 76.12 1192.8 76.12C1193.81 76.12 1194.63 75.8 1195.24 75.16C1195.85 74.5067 1196.16 73.6133 1196.16 72.48C1196.16 71.36 1195.85 70.4733 1195.24 69.82C1194.63 69.1667 1193.81 68.84 1192.8 68.84ZM1206.22 76.02V78H1204.82C1203.64 78 1202.75 77.72 1202.14 77.16C1201.54 76.5867 1201.24 75.64 1201.24 74.32V68.92H1199.66V66.98H1201.24V64.24H1203.54V66.98H1206.2V68.92H1203.54V74.36C1203.54 74.9867 1203.65 75.42 1203.88 75.66C1204.12 75.9 1204.53 76.02 1205.12 76.02H1206.22ZM1208.03 63.78C1208.03 63.3933 1208.17 63.0733 1208.43 62.82C1208.7 62.5667 1209.05 62.44 1209.49 62.44C1209.93 62.44 1210.29 62.5667 1210.55 62.82C1210.83 63.0733 1210.97 63.3933 1210.97 63.78C1210.97 64.1667 1210.83 64.48 1210.55 64.72C1210.29 64.96 1209.93 65.08 1209.49 65.08C1209.05 65.08 1208.7 64.96 1208.43 64.72C1208.17 64.48 1208.03 64.1667 1208.03 63.78ZM1210.63 66.98V78H1208.35V66.98H1210.63ZM1227.17 66.8C1228.48 66.8 1229.52 67.2133 1230.29 68.04C1231.08 68.8667 1231.47 70.0467 1231.47 71.58V78H1229.19V71.82C1229.19 70.86 1228.95 70.12 1228.47 69.6C1227.99 69.0667 1227.33 68.8 1226.49 68.8C1225.6 68.8 1224.89 69.0867 1224.35 69.66C1223.83 70.22 1223.57 71.0467 1223.57 72.14V78H1221.29V71.82C1221.29 70.86 1221.05 70.12 1220.57 69.6C1220.09 69.0667 1219.43 68.8 1218.59 68.8C1217.7 68.8 1216.99 69.0867 1216.45 69.66C1215.93 70.22 1215.67 71.0467 1215.67 72.14V78H1213.39V66.98H1215.67V69.28C1215.95 68.48 1216.42 67.8667 1217.07 67.44C1217.73 67.0133 1218.49 66.8 1219.37 66.8C1220.29 66.8 1221.09 67.0267 1221.75 67.48C1222.43 67.9333 1222.93 68.5867 1223.23 69.44C1223.55 68.6133 1224.07 67.9667 1224.77 67.5C1225.48 67.0333 1226.28 66.8 1227.17 66.8ZM1233.81 63.78C1233.81 63.3933 1233.95 63.0733 1234.21 62.82C1234.48 62.5667 1234.83 62.44 1235.27 62.44C1235.71 62.44 1236.07 62.5667 1236.33 62.82C1236.61 63.0733 1236.75 63.3933 1236.75 63.78C1236.75 64.1667 1236.61 64.48 1236.33 64.72C1236.07 64.96 1235.71 65.08 1235.27 65.08C1234.83 65.08 1234.48 64.96 1234.21 64.72C1233.95 64.48 1233.81 64.1667 1233.81 63.78ZM1236.41 66.98V78H1234.13V66.98H1236.41ZM1240.81 76.08H1246.47V78H1238.29V76.18L1243.65 68.9H1238.43V66.98H1246.27V68.8L1240.81 76.08ZM1258.59 71.96C1258.59 72.3333 1258.57 72.66 1258.51 72.94H1250.03C1250.07 74.0733 1250.39 74.9133 1250.97 75.46C1251.56 76.0067 1252.29 76.28 1253.15 76.28C1253.91 76.28 1254.55 76.0867 1255.07 75.7C1255.61 75.3133 1255.93 74.8 1256.05 74.16H1258.49C1258.35 74.9333 1258.04 75.62 1257.57 76.22C1257.11 76.82 1256.5 77.2933 1255.75 77.64C1255.01 77.9733 1254.17 78.14 1253.25 78.14C1252.19 78.14 1251.24 77.9133 1250.41 77.46C1249.6 77.0067 1248.96 76.3533 1248.49 75.5C1248.03 74.6467 1247.79 73.64 1247.79 72.48C1247.79 71.3333 1248.03 70.3333 1248.49 69.48C1248.96 68.6267 1249.6 67.9733 1250.41 67.52C1251.24 67.0667 1252.19 66.84 1253.25 66.84C1254.33 66.84 1255.27 67.0667 1256.07 67.52C1256.89 67.96 1257.51 68.5733 1257.93 69.36C1258.37 70.1333 1258.59 71 1258.59 71.96ZM1256.29 71.9C1256.32 71.18 1256.19 70.58 1255.91 70.1C1255.65 69.6067 1255.27 69.2467 1254.79 69.02C1254.33 68.78 1253.81 68.66 1253.25 68.66C1252.36 68.66 1251.61 68.9333 1251.01 69.48C1250.41 70.0267 1250.09 70.8333 1250.03 71.9H1256.29ZM1275.36 78L1272.72 75.02C1272.71 75.1533 1272.64 75.3867 1272.52 75.72C1272.33 76.44 1271.93 77.0267 1271.3 77.48C1270.69 77.92 1269.95 78.14 1269.1 78.14C1268.23 78.14 1267.47 77.96 1266.82 77.6C1266.17 77.24 1265.66 76.74 1265.3 76.1C1264.94 75.46 1264.76 74.7267 1264.76 73.9C1264.76 73.06 1264.92 72.3333 1265.24 71.72C1265.57 71.1067 1266.02 70.64 1266.58 70.32C1267.14 70 1267.76 69.84 1268.44 69.84H1268.58L1268.32 69.48C1268 69.08 1267.75 68.6867 1267.58 68.3C1267.41 67.9 1267.32 67.4533 1267.32 66.96C1267.32 66.4 1267.46 65.8733 1267.74 65.38C1268.03 64.8867 1268.46 64.4933 1269.02 64.2C1269.59 63.8933 1270.27 63.74 1271.06 63.74C1272.23 63.74 1273.13 64.02 1273.74 64.58C1274.37 65.14 1274.76 65.8467 1274.92 66.7C1275.04 67.14 1275.09 67.6133 1275.06 68.12H1272.9V67.9C1272.9 67.7 1272.89 67.5533 1272.88 67.46C1272.87 66.9 1272.7 66.46 1272.38 66.14C1272.07 65.82 1271.65 65.66 1271.1 65.66C1270.59 65.66 1270.19 65.8067 1269.9 66.1C1269.62 66.3933 1269.48 66.7533 1269.48 67.18C1269.48 67.54 1269.55 67.8533 1269.68 68.12C1269.83 68.3867 1270.05 68.7 1270.34 69.06L1277.7 78H1275.36ZM1269.12 76.2C1269.77 76.2 1270.31 75.9933 1270.72 75.58C1271.15 75.1667 1271.36 74.6333 1271.36 73.98C1271.36 73.5267 1271.24 73.12 1271 72.76C1270.77 72.3867 1270.47 72.1 1270.08 71.9C1269.71 71.6867 1269.31 71.58 1268.9 71.58C1268.26 71.58 1267.74 71.78 1267.34 72.18C1266.94 72.5667 1266.74 73.12 1266.74 73.84C1266.74 74.5733 1266.97 75.1533 1267.42 75.58C1267.89 75.9933 1268.45 76.2 1269.12 76.2ZM1180.46 89.88V91.72H1176.52V104H1174.22V91.72H1170.3V89.88H1180.46ZM1192.4 97.96C1192.4 98.3333 1192.37 98.66 1192.32 98.94H1183.84C1183.88 100.073 1184.19 100.913 1184.78 101.46C1185.37 102.007 1186.09 102.28 1186.96 102.28C1187.72 102.28 1188.36 102.087 1188.88 101.7C1189.41 101.313 1189.74 100.8 1189.86 100.16H1192.3C1192.15 100.933 1191.85 101.62 1191.38 102.22C1190.91 102.82 1190.31 103.293 1189.56 103.64C1188.81 103.973 1187.98 104.14 1187.06 104.14C1185.99 104.14 1185.05 103.913 1184.22 103.46C1183.41 103.007 1182.77 102.353 1182.3 101.5C1181.83 100.647 1181.6 99.64 1181.6 98.48C1181.6 97.3333 1181.83 96.3333 1182.3 95.48C1182.77 94.6267 1183.41 93.9733 1184.22 93.52C1185.05 93.0667 1185.99 92.84 1187.06 92.84C1188.14 92.84 1189.08 93.0667 1189.88 93.52C1190.69 93.96 1191.31 94.5733 1191.74 95.36C1192.18 96.1333 1192.4 97 1192.4 97.96ZM1190.1 97.9C1190.13 97.18 1190 96.58 1189.72 96.1C1189.45 95.6067 1189.08 95.2467 1188.6 95.02C1188.13 94.78 1187.62 94.66 1187.06 94.66C1186.17 94.66 1185.42 94.9333 1184.82 95.48C1184.22 96.0267 1183.89 96.8333 1183.84 97.9H1190.1ZM1198.22 92.84C1199.52 92.84 1200.55 93.1733 1201.32 93.84C1202.11 94.4933 1202.59 95.3733 1202.76 96.48H1200.6C1200.51 95.88 1200.25 95.4 1199.82 95.04C1199.41 94.6667 1198.86 94.48 1198.16 94.48C1197.59 94.48 1197.14 94.62 1196.82 94.9C1196.52 95.1667 1196.36 95.5333 1196.36 96C1196.36 96.3467 1196.48 96.6267 1196.7 96.84C1196.93 97.0533 1197.21 97.22 1197.54 97.34C1197.89 97.46 1198.38 97.5933 1199 97.74C1199.83 97.9267 1200.5 98.12 1201 98.32C1201.52 98.52 1201.96 98.84 1202.32 99.28C1202.7 99.7067 1202.88 100.293 1202.88 101.04C1202.88 101.96 1202.53 102.707 1201.82 103.28C1201.13 103.853 1200.19 104.14 1199 104.14C1197.63 104.14 1196.52 103.82 1195.66 103.18C1194.82 102.54 1194.32 101.647 1194.14 100.5H1196.36C1196.43 101.1 1196.7 101.587 1197.16 101.96C1197.63 102.333 1198.24 102.52 1199 102.52C1199.55 102.52 1199.98 102.38 1200.28 102.1C1200.6 101.807 1200.76 101.44 1200.76 101C1200.76 100.613 1200.64 100.307 1200.4 100.08C1200.16 99.8533 1199.86 99.68 1199.5 99.56C1199.14 99.4267 1198.65 99.2933 1198.02 99.16C1197.22 98.9733 1196.57 98.7867 1196.06 98.6C1195.57 98.4133 1195.14 98.1133 1194.78 97.7C1194.44 97.2733 1194.26 96.7 1194.26 95.98C1194.26 95.0467 1194.61 94.2933 1195.3 93.72C1196.01 93.1333 1196.98 92.84 1198.22 92.84ZM1210.71 102.02V104H1209.31C1208.14 104 1207.24 103.72 1206.63 103.16C1206.03 102.587 1205.73 101.64 1205.73 100.32V94.92H1204.15V92.98H1205.73V90.24H1208.03V92.98H1210.69V94.92H1208.03V100.36C1208.03 100.987 1208.14 101.42 1208.37 101.66C1208.61 101.9 1209.02 102.02 1209.61 102.02H1210.71Z" fill="white"></path><path d="M1171.2 34.52C1171.2 32.2133 1171.59 30.4133 1172.36 29.12C1173.15 27.8133 1174.49 27.16 1176.4 27.16C1178.31 27.16 1179.65 27.8133 1180.42 29.12C1181.21 30.4133 1181.6 32.2133 1181.6 34.52C1181.6 36.8533 1181.21 38.68 1180.42 40C1179.65 41.3067 1178.31 41.96 1176.4 41.96C1174.49 41.96 1173.15 41.3067 1172.36 40C1171.59 38.68 1171.2 36.8533 1171.2 34.52ZM1179.36 34.52C1179.36 33.44 1179.29 32.5267 1179.14 31.78C1179.01 31.0333 1178.73 30.4267 1178.3 29.96C1177.87 29.48 1177.24 29.24 1176.4 29.24C1175.56 29.24 1174.93 29.48 1174.5 29.96C1174.07 30.4267 1173.79 31.0333 1173.64 31.78C1173.51 32.5267 1173.44 33.44 1173.44 34.52C1173.44 35.64 1173.51 36.58 1173.64 37.34C1173.77 38.1 1174.05 38.7133 1174.48 39.18C1174.92 39.6467 1175.56 39.88 1176.4 39.88C1177.24 39.88 1177.87 39.6467 1178.3 39.18C1178.74 38.7133 1179.03 38.1 1179.16 37.34C1179.29 36.58 1179.36 35.64 1179.36 34.52ZM1191.85 30.8C1191.71 30.1867 1191.44 29.7267 1191.05 29.42C1190.67 29.1133 1190.13 28.96 1189.43 28.96C1188.38 28.96 1187.59 29.3667 1187.07 30.18C1186.55 30.98 1186.28 32.3133 1186.25 34.18C1186.6 33.5933 1187.11 33.14 1187.77 32.82C1188.44 32.5 1189.16 32.34 1189.93 32.34C1190.81 32.34 1191.59 32.5333 1192.25 32.92C1192.93 33.2933 1193.46 33.84 1193.83 34.56C1194.22 35.28 1194.41 36.14 1194.41 37.14C1194.41 38.0733 1194.23 38.9067 1193.85 39.64C1193.49 40.3733 1192.95 40.9533 1192.23 41.38C1191.51 41.7933 1190.65 42 1189.63 42C1188.26 42 1187.18 41.7 1186.39 41.1C1185.62 40.4867 1185.07 39.6267 1184.75 38.52C1184.45 37.4133 1184.29 36.0333 1184.29 34.38C1184.29 29.5 1186.01 27.06 1189.45 27.06C1190.79 27.06 1191.83 27.42 1192.59 28.14C1193.37 28.86 1193.82 29.7467 1193.95 30.8H1191.85ZM1189.43 34.26C1188.62 34.26 1187.93 34.5067 1187.35 35C1186.79 35.48 1186.51 36.18 1186.51 37.1C1186.51 38.02 1186.77 38.7533 1187.29 39.3C1187.83 39.8333 1188.57 40.1 1189.51 40.1C1190.35 40.1 1191.01 39.84 1191.49 39.32C1191.99 38.8 1192.23 38.1067 1192.23 37.24C1192.23 36.3333 1191.99 35.6133 1191.51 35.08C1191.05 34.5333 1190.35 34.26 1189.43 34.26Z" fill="#888888"></path><rect x="1367" width="167" height="130" rx="10" fill="#222222"></rect><path d="M1403.02 64.1V78H1400.72V67.58L1396.7 78H1394.7L1390.66 67.58V78H1388.38V64.1H1391.14L1395.74 75.2L1400.26 64.1H1403.02ZM1416 71.96C1416 72.3333 1415.98 72.66 1415.92 72.94H1407.44C1407.48 74.0733 1407.8 74.9133 1408.38 75.46C1408.97 76.0067 1409.7 76.28 1410.56 76.28C1411.32 76.28 1411.96 76.0867 1412.48 75.7C1413.02 75.3133 1413.34 74.8 1413.46 74.16H1415.9C1415.76 74.9333 1415.45 75.62 1414.98 76.22C1414.52 76.82 1413.91 77.2933 1413.16 77.64C1412.42 77.9733 1411.58 78.14 1410.66 78.14C1409.6 78.14 1408.65 77.9133 1407.82 77.46C1407.01 77.0067 1406.37 76.3533 1405.9 75.5C1405.44 74.6467 1405.2 73.64 1405.2 72.48C1405.2 71.3333 1405.44 70.3333 1405.9 69.48C1406.37 68.6267 1407.01 67.9733 1407.82 67.52C1408.65 67.0667 1409.6 66.84 1410.66 66.84C1411.74 66.84 1412.68 67.0667 1413.48 67.52C1414.3 67.96 1414.92 68.5733 1415.34 69.36C1415.78 70.1333 1416 71 1416 71.96ZM1413.7 71.9C1413.73 71.18 1413.6 70.58 1413.32 70.1C1413.06 69.6067 1412.68 69.2467 1412.2 69.02C1411.74 68.78 1411.22 68.66 1410.66 68.66C1409.77 68.66 1409.02 68.9333 1408.42 69.48C1407.82 70.0267 1407.5 70.8333 1407.44 71.9H1413.7ZM1422.62 66.84C1423.62 66.84 1424.48 67.0867 1425.18 67.58C1425.89 68.0733 1426.39 68.7267 1426.68 69.54V66.98H1428.96V78H1426.68V75.44C1426.39 76.2533 1425.89 76.9067 1425.18 77.4C1424.48 77.8933 1423.62 78.14 1422.62 78.14C1421.66 78.14 1420.8 77.9133 1420.04 77.46C1419.3 77.0067 1418.71 76.3533 1418.28 75.5C1417.86 74.6467 1417.64 73.64 1417.64 72.48C1417.64 71.3333 1417.86 70.3333 1418.28 69.48C1418.71 68.6267 1419.3 67.9733 1420.04 67.52C1420.8 67.0667 1421.66 66.84 1422.62 66.84ZM1423.32 68.84C1422.31 68.84 1421.5 69.1667 1420.88 69.82C1420.28 70.46 1419.98 71.3467 1419.98 72.48C1419.98 73.6133 1420.28 74.5067 1420.88 75.16C1421.5 75.8 1422.31 76.12 1423.32 76.12C1423.96 76.12 1424.54 75.9733 1425.04 75.68C1425.55 75.3733 1425.95 74.9467 1426.24 74.4C1426.54 73.8533 1426.68 73.2133 1426.68 72.48C1426.68 71.76 1426.54 71.1267 1426.24 70.58C1425.95 70.02 1425.55 69.5933 1425.04 69.3C1424.54 68.9933 1423.96 68.84 1423.32 68.84ZM1435.32 66.84C1436.61 66.84 1437.65 67.1733 1438.42 67.84C1439.21 68.4933 1439.69 69.3733 1439.86 70.48H1437.7C1437.61 69.88 1437.35 69.4 1436.92 69.04C1436.51 68.6667 1435.95 68.48 1435.26 68.48C1434.69 68.48 1434.24 68.62 1433.92 68.9C1433.61 69.1667 1433.46 69.5333 1433.46 70C1433.46 70.3467 1433.57 70.6267 1433.8 70.84C1434.03 71.0533 1434.31 71.22 1434.64 71.34C1434.99 71.46 1435.47 71.5933 1436.1 71.74C1436.93 71.9267 1437.59 72.12 1438.1 72.32C1438.62 72.52 1439.06 72.84 1439.42 73.28C1439.79 73.7067 1439.98 74.2933 1439.98 75.04C1439.98 75.96 1439.63 76.7067 1438.92 77.28C1438.23 77.8533 1437.29 78.14 1436.1 78.14C1434.73 78.14 1433.61 77.82 1432.76 77.18C1431.92 76.54 1431.41 75.6467 1431.24 74.5H1433.46C1433.53 75.1 1433.79 75.5867 1434.26 75.96C1434.73 76.3333 1435.34 76.52 1436.1 76.52C1436.65 76.52 1437.07 76.38 1437.38 76.1C1437.7 75.8067 1437.86 75.44 1437.86 75C1437.86 74.6133 1437.74 74.3067 1437.5 74.08C1437.26 73.8533 1436.96 73.68 1436.6 73.56C1436.24 73.4267 1435.75 73.2933 1435.12 73.16C1434.32 72.9733 1433.67 72.7867 1433.16 72.6C1432.67 72.4133 1432.24 72.1133 1431.88 71.7C1431.53 71.2733 1431.36 70.7 1431.36 69.98C1431.36 69.0467 1431.71 68.2933 1432.4 67.72C1433.11 67.1333 1434.08 66.84 1435.32 66.84ZM1452.43 66.98V78H1450.13V75.6C1449.85 76.4133 1449.36 77.0467 1448.67 77.5C1447.97 77.94 1447.17 78.16 1446.25 78.16C1444.97 78.16 1443.94 77.7467 1443.17 76.92C1442.39 76.0933 1442.01 74.9133 1442.01 73.38V66.98H1444.29V73.14C1444.29 74.14 1444.54 74.9133 1445.05 75.46C1445.55 75.9933 1446.25 76.26 1447.13 76.26C1448.03 76.26 1448.76 75.9667 1449.31 75.38C1449.85 74.7933 1450.13 73.94 1450.13 72.82V66.98H1452.43ZM1457.44 69.14C1457.81 68.42 1458.34 67.8533 1459.04 67.44C1459.73 67.0133 1460.53 66.8 1461.44 66.8V69.28H1460.76C1459.76 69.28 1458.95 69.5267 1458.34 70.02C1457.74 70.5 1457.44 71.3 1457.44 72.42V78H1455.16V66.98H1457.44V69.14ZM1473.39 71.96C1473.39 72.3333 1473.36 72.66 1473.31 72.94H1464.83C1464.87 74.0733 1465.18 74.9133 1465.77 75.46C1466.35 76.0067 1467.08 76.28 1467.95 76.28C1468.71 76.28 1469.35 76.0867 1469.87 75.7C1470.4 75.3133 1470.73 74.8 1470.85 74.16H1473.29C1473.14 74.9333 1472.83 75.62 1472.37 76.22C1471.9 76.82 1471.29 77.2933 1470.55 77.64C1469.8 77.9733 1468.97 78.14 1468.05 78.14C1466.98 78.14 1466.03 77.9133 1465.21 77.46C1464.39 77.0067 1463.75 76.3533 1463.29 75.5C1462.82 74.6467 1462.59 73.64 1462.59 72.48C1462.59 71.3333 1462.82 70.3333 1463.29 69.48C1463.75 68.6267 1464.39 67.9733 1465.21 67.52C1466.03 67.0667 1466.98 66.84 1468.05 66.84C1469.13 66.84 1470.07 67.0667 1470.87 67.52C1471.68 67.96 1472.3 68.5733 1472.73 69.36C1473.17 70.1333 1473.39 71 1473.39 71.96ZM1471.09 71.9C1471.11 71.18 1470.99 70.58 1470.71 70.1C1470.44 69.6067 1470.07 69.2467 1469.59 69.02C1469.12 68.78 1468.61 68.66 1468.05 68.66C1467.15 68.66 1466.41 68.9333 1465.81 69.48C1465.21 70.0267 1464.88 70.8333 1464.83 71.9H1471.09ZM1490.15 78L1487.51 75.02C1487.5 75.1533 1487.43 75.3867 1487.31 75.72C1487.13 76.44 1486.72 77.0267 1486.09 77.48C1485.48 77.92 1484.75 78.14 1483.89 78.14C1483.03 78.14 1482.27 77.96 1481.61 77.6C1480.96 77.24 1480.45 76.74 1480.09 76.1C1479.73 75.46 1479.55 74.7267 1479.55 73.9C1479.55 73.06 1479.71 72.3333 1480.03 71.72C1480.37 71.1067 1480.81 70.64 1481.37 70.32C1481.93 70 1482.55 69.84 1483.23 69.84H1483.37L1483.11 69.48C1482.79 69.08 1482.55 68.6867 1482.37 68.3C1482.2 67.9 1482.11 67.4533 1482.11 66.96C1482.11 66.4 1482.25 65.8733 1482.53 65.38C1482.83 64.8867 1483.25 64.4933 1483.81 64.2C1484.39 63.8933 1485.07 63.74 1485.85 63.74C1487.03 63.74 1487.92 64.02 1488.53 64.58C1489.16 65.14 1489.55 65.8467 1489.71 66.7C1489.83 67.14 1489.88 67.6133 1489.85 68.12H1487.69V67.9C1487.69 67.7 1487.69 67.5533 1487.67 67.46C1487.66 66.9 1487.49 66.46 1487.17 66.14C1486.87 65.82 1486.44 65.66 1485.89 65.66C1485.39 65.66 1484.99 65.8067 1484.69 66.1C1484.41 66.3933 1484.27 66.7533 1484.27 67.18C1484.27 67.54 1484.34 67.8533 1484.47 68.12C1484.62 68.3867 1484.84 68.7 1485.13 69.06L1492.49 78H1490.15ZM1483.91 76.2C1484.57 76.2 1485.1 75.9933 1485.51 75.58C1485.94 75.1667 1486.15 74.6333 1486.15 73.98C1486.15 73.5267 1486.03 73.12 1485.79 72.76C1485.57 72.3867 1485.26 72.1 1484.87 71.9C1484.5 71.6867 1484.11 71.58 1483.69 71.58C1483.05 71.58 1482.53 71.78 1482.13 72.18C1481.73 72.5667 1481.53 73.12 1481.53 73.84C1481.53 74.5733 1481.76 75.1533 1482.21 75.58C1482.68 75.9933 1483.25 76.2 1483.91 76.2ZM1394.84 89.76C1396.52 89.76 1397.92 90.1733 1399.04 91C1400.16 91.8267 1400.9 92.9533 1401.26 94.38H1398.86C1398.55 93.62 1398.05 93.0133 1397.34 92.56C1396.65 92.1067 1395.82 91.88 1394.86 91.88C1393.98 91.88 1393.19 92.0867 1392.48 92.5C1391.79 92.9133 1391.24 93.5 1390.84 94.26C1390.45 95.02 1390.26 95.9133 1390.26 96.94C1390.26 98.02 1390.46 98.9467 1390.86 99.72C1391.26 100.493 1391.82 101.087 1392.54 101.5C1393.27 101.9 1394.12 102.1 1395.08 102.1C1396.25 102.1 1397.26 101.74 1398.1 101.02C1398.94 100.287 1399.45 99.2867 1399.62 98.02H1394.44V96.34H1401.54V98.52C1401.38 99.56 1401.01 100.507 1400.42 101.36C1399.85 102.2 1399.08 102.873 1398.12 103.38C1397.17 103.887 1396.09 104.14 1394.86 104.14C1393.49 104.14 1392.27 103.833 1391.22 103.22C1390.17 102.607 1389.35 101.76 1388.78 100.68C1388.21 99.5867 1387.92 98.34 1387.92 96.94C1387.92 95.54 1388.21 94.3 1388.78 93.22C1389.35 92.1267 1390.16 91.28 1391.2 90.68C1392.25 90.0667 1393.47 89.76 1394.84 89.76ZM1406.13 95.14C1406.5 94.42 1407.04 93.8533 1407.73 93.44C1408.42 93.0133 1409.22 92.8 1410.13 92.8V95.28H1409.45C1408.45 95.28 1407.64 95.5267 1407.03 96.02C1406.43 96.5 1406.13 97.3 1406.13 98.42V104H1403.85V92.98H1406.13V95.14ZM1416.88 92.84C1417.94 92.84 1418.9 93.0667 1419.76 93.52C1420.61 93.9733 1421.28 94.6267 1421.76 95.48C1422.24 96.3333 1422.48 97.3333 1422.48 98.48C1422.48 99.64 1422.24 100.647 1421.76 101.5C1421.28 102.353 1420.61 103.007 1419.76 103.46C1418.9 103.913 1417.94 104.14 1416.88 104.14C1415.81 104.14 1414.85 103.913 1414 103.46C1413.16 103.007 1412.49 102.353 1412 101.5C1411.52 100.633 1411.28 99.6267 1411.28 98.48C1411.28 97.3333 1411.52 96.3333 1412 95.48C1412.49 94.6267 1413.16 93.9733 1414 93.52C1414.85 93.0667 1415.81 92.84 1416.88 92.84ZM1416.88 94.82C1416.29 94.82 1415.75 94.9533 1415.26 95.22C1414.76 95.4867 1414.36 95.9 1414.06 96.46C1413.76 97.0067 1413.62 97.68 1413.62 98.48C1413.62 99.2933 1413.76 99.9733 1414.06 100.52C1414.36 101.067 1414.76 101.473 1415.26 101.74C1415.75 102.007 1416.29 102.14 1416.88 102.14C1417.46 102.14 1418 102.007 1418.5 101.74C1418.99 101.473 1419.38 101.067 1419.68 100.52C1419.98 99.9733 1420.14 99.2933 1420.14 98.48C1420.14 97.68 1419.98 97.0067 1419.68 96.46C1419.38 95.9 1418.99 95.4867 1418.5 95.22C1418 94.9533 1417.46 94.82 1416.88 94.82ZM1440.11 92.98L1437.05 104H1434.53L1431.81 95.48L1429.05 104H1426.55L1423.49 92.98H1425.79L1427.89 101.9L1430.65 92.98H1433.05L1435.85 101.9L1437.95 92.98H1440.11Z" fill="white"></path><path d="M1388.2 34.52C1388.2 32.2133 1388.59 30.4133 1389.36 29.12C1390.15 27.8133 1391.49 27.16 1393.4 27.16C1395.31 27.16 1396.65 27.8133 1397.42 29.12C1398.21 30.4133 1398.6 32.2133 1398.6 34.52C1398.6 36.8533 1398.21 38.68 1397.42 40C1396.65 41.3067 1395.31 41.96 1393.4 41.96C1391.49 41.96 1390.15 41.3067 1389.36 40C1388.59 38.68 1388.2 36.8533 1388.2 34.52ZM1396.36 34.52C1396.36 33.44 1396.29 32.5267 1396.14 31.78C1396.01 31.0333 1395.73 30.4267 1395.3 29.96C1394.87 29.48 1394.24 29.24 1393.4 29.24C1392.56 29.24 1391.93 29.48 1391.5 29.96C1391.07 30.4267 1390.79 31.0333 1390.64 31.78C1390.51 32.5267 1390.44 33.44 1390.44 34.52C1390.44 35.64 1390.51 36.58 1390.64 37.34C1390.77 38.1 1391.05 38.7133 1391.48 39.18C1391.92 39.6467 1392.56 39.88 1393.4 39.88C1394.24 39.88 1394.87 39.6467 1395.3 39.18C1395.74 38.7133 1396.03 38.1 1396.16 37.34C1396.29 36.58 1396.36 35.64 1396.36 34.52ZM1410.25 29.18L1404.69 42H1402.39L1408.01 29.42H1400.61V27.48H1410.25V29.18Z" fill="#888888"></path><path d="M280 65L270 59.2265V70.7735L280 65ZM234 66H271V64H234V66Z" fill="#AAAAAA"></path><path d="M497 65L487 59.2265V70.7735L497 65ZM451 66H488V64H451V66Z" fill="#AAAAAA"></path><path d="M714 65L704 59.2265V70.7735L714 65ZM668 66H705V64H668V66Z" fill="#AAAAAA"></path><path d="M931 65L921 59.2265V70.7735L931 65ZM885 66H922V64H885V66Z" fill="#AAAAAA"></path><path d="M1148 65L1138 59.2265V70.7735L1148 65ZM1102 66H1139V64H1102V66Z" fill="#AAAAAA"></path><path d="M1365 65L1355 59.2265V70.7735L1365 65ZM1319 66H1356V64H1319V66Z" fill="#AAAAAA"></path><path d="M65.5685 65L55.5685 59.2265V70.7735L65.5685 65ZM59.9975 64H56.2834V66H59.9975V64ZM52.5694 64H48.8553V66H52.5694V64ZM45.1413 64H41.4272V66H45.1413V64ZM37.7132 64H33.9991V66H37.7132V64ZM30.2851 64H26.5711V66H30.2851V64ZM22.857 64H21V66H22.857V64ZM21 64C20.3059 64 19.6194 64.0337 18.942 64.0996L19.1358 66.0902C19.7488 66.0306 20.3707 66 21 66V64ZM14.9024 64.8992C13.5737 65.3018 12.3009 65.8324 11.0982 66.4765L12.0425 68.2395C13.1303 67.6569 14.2812 67.1772 15.4823 66.8133L14.9024 64.8992ZM7.67711 68.7665C6.61466 69.6395 5.63947 70.6147 4.76654 71.6771L6.31185 72.9468C7.10209 71.985 7.98496 71.1021 8.94676 70.3119L7.67711 68.7665ZM2.4765 75.0982C1.83235 76.3009 1.30177 77.5737 0.899224 78.9024L2.8133 79.4823C3.17719 78.2812 3.6569 77.1303 4.23953 76.0425L2.4765 75.0982ZM0.0996287 82.942C0.0337081 83.6194 0 84.3059 0 85H2C2 84.3707 2.03056 83.7488 2.09022 83.1358L0.0996287 82.942ZM0 85V86.9625H2V85H0ZM0 90.8875V94.8125H2V90.8875H0ZM0 98.7375V102.663H2V98.7375H0ZM0 106.588V110.513H2V106.588H0ZM0 114.438V118.363H2V114.438H0ZM0 122.288V126.213H2V122.288H0ZM0 130.138V134.062H2V130.138H0ZM0 137.987V141.912H2V137.987H0ZM0 145.837V149.763H2V145.837H0ZM0 153.688V157.613H2V153.688H0ZM0 161.538V165.463H2V161.538H0ZM0 169.388V173.313H2V169.388H0ZM0 177.238V181.163H2V177.238H0ZM0 185.088V189.013H2V185.088H0ZM0 192.938V196.863H2V192.938H0ZM0 200.788V204.713H2V200.788H0ZM0 208.638V212.563H2V208.638H0ZM0 216.488V220.413H2V216.488H0ZM0 224.338V228.263H2V224.338H0ZM0 232.188V236.113H2V232.188H0ZM0 240.038V242H2V240.038H0ZM0 242C0 242.694 0.0337081 243.381 0.0996286 244.058L2.09022 243.864C2.03056 243.251 2 242.629 2 242H0ZM0.899223 248.098C1.30177 249.426 1.83235 250.699 2.4765 251.902L4.23953 250.957C3.6569 249.87 3.17719 248.719 2.8133 247.518L0.899223 248.098ZM4.76654 255.323C5.63946 256.385 6.61465 257.361 7.6771 258.233L8.94676 256.688C7.98495 255.898 7.10209 255.015 6.31185 254.053L4.76654 255.323ZM11.0982 260.523C12.3009 261.168 13.5737 261.698 14.9024 262.101L15.4823 260.187C14.2812 259.823 13.1303 259.343 12.0425 258.76L11.0982 260.523ZM18.942 262.9C19.6194 262.966 20.3059 263 21 263V261C20.3707 261 19.7488 260.969 19.1357 260.91L18.942 262.9ZM21 263H22.9974V261H21V263ZM26.9923 263H30.9871V261H26.9923V263ZM34.9819 263H38.9768V261H34.9819V263ZM42.9716 263H46.9665V261H42.9716V263ZM50.9613 263H54.9562V261H50.9613V263ZM58.951 263H62.9459V261H58.951V263ZM66.9407 263H70.9356V261H66.9407V263ZM74.9304 263H78.9253V261H74.9304V263ZM82.9201 263H86.9149V261H82.9201V263ZM90.9098 263H94.9046V261H90.9098V263ZM98.8995 263H102.894V261H98.8995V263ZM106.889 263H110.884V261H106.889V263ZM114.879 263H118.874V261H114.879V263ZM122.869 263H126.863V261H122.869V263ZM130.858 263H134.853V261H130.858V263ZM138.848 263H142.843V261H138.848V263ZM146.838 263H150.832V261H146.838V263ZM154.827 263H158.822V261H154.827V263ZM162.817 263H166.812V261H162.817V263ZM170.807 263H174.801V261H170.807V263ZM178.796 263H182.791V261H178.796V263ZM186.786 263H190.781V261H186.786V263ZM194.776 263H198.771V261H194.776V263ZM202.765 263H206.76V261H202.765V263ZM210.755 263H214.75V261H210.755V263ZM218.745 263H222.74V261H218.745V263ZM226.734 263H230.729V261H226.734V263ZM234.724 263H238.719V261H234.724V263ZM242.714 263H246.709V261H242.714V263ZM250.704 263H254.698V261H250.704V263ZM258.693 263H262.688V261H258.693V263ZM266.683 263H270.678V261H266.683V263ZM274.673 263H278.667V261H274.673V263ZM282.662 263H286.657V261H282.662V263ZM290.652 263H294.647V261H290.652V263ZM298.642 263H302.636V261H298.642V263ZM306.631 263H310.626V261H306.631V263ZM314.621 263H318.616V261H314.621V263ZM322.611 263H326.606V261H322.611V263ZM330.6 263H334.595V261H330.6V263ZM338.59 263H342.585V261H338.59V263ZM346.58 263H350.575V261H346.58V263ZM354.569 263H358.564V261H354.569V263ZM362.559 263H366.554V261H362.559V263ZM370.549 263H374.544V261H370.549V263ZM378.538 263H382.533V261H378.538V263ZM386.528 263H390.523V261H386.528V263ZM394.518 263H398.513V261H394.518V263ZM402.508 263H406.502V261H402.508V263ZM410.497 263H414.492V261H410.497V263ZM418.487 263H422.482V261H418.487V263ZM426.477 263H430.471V261H426.477V263ZM434.466 263H438.461V261H434.466V263ZM442.456 263H446.451V261H442.456V263ZM450.446 263H454.44V261H450.446V263ZM458.435 263H462.43V261H458.435V263ZM466.425 263H470.42V261H466.425V263ZM474.415 263H478.41V261H474.415V263ZM482.404 263H486.399V261H482.404V263ZM490.394 263H494.389V261H490.394V263ZM498.384 263H502.379V261H498.384V263ZM506.373 263H510.368V261H506.373V263ZM514.363 263H518.358V261H514.363V263ZM522.353 263H526.348V261H522.353V263ZM530.342 263H534.337V261H530.342V263ZM538.332 263H542.327V261H538.332V263ZM546.322 263H550.317V261H546.322V263ZM554.312 263H558.307V261H554.312V263ZM562.301 263H566.296V261H562.301V263ZM570.291 263H574.286V261H570.291V263ZM578.281 263H582.276V261H578.281V263ZM586.271 263H590.266V261H586.271V263ZM594.26 263H598.255V261H594.26V263ZM602.25 263H606.245V261H602.25V263ZM610.24 263H614.235V261H610.24V263ZM618.23 263H622.225V261H618.23V263ZM626.219 263H630.214V261H626.219V263ZM634.209 263H638.204V261H634.209V263ZM642.199 263H646.194V261H642.199V263ZM650.189 263H654.184V261H650.189V263ZM658.178 263H662.173V261H658.178V263ZM666.168 263H670.163V261H666.168V263ZM674.158 263H678.153V261H674.158V263ZM682.148 263H686.143V261H682.148V263ZM690.137 263H694.132V261H690.137V263ZM698.127 263H702.122V261H698.127V263ZM706.117 263H710.112V261H706.117V263ZM714.107 263H718.102V261H714.107V263ZM722.096 263H726.091V261H722.096V263ZM730.086 263H734.081V261H730.086V263ZM738.076 263H742.071V261H738.076V263ZM746.066 263H750.06V261H746.066V263ZM754.055 263H758.05V261H754.055V263ZM762.045 263H766.04V261H762.045V263ZM770.035 263H774.03V261H770.035V263ZM778.025 263H782.019V261H778.025V263ZM786.014 263H790.009V261H786.014V263ZM794.004 263H797.999V261H794.004V263ZM801.994 263H805.989V261H801.994V263ZM809.984 263H813.978V261H809.984V263ZM817.973 263H821.968V261H817.973V263ZM825.963 263H829.958V261H825.963V263ZM833.953 263H837.948V261H833.953V263ZM841.943 263H845.937V261H841.943V263ZM849.932 263H853.927V261H849.932V263ZM857.922 263H861.917V261H857.922V263ZM865.912 263H869.907V261H865.912V263ZM873.902 263H877.896V261H873.902V263ZM881.891 263H885.886V261H881.891V263ZM889.881 263H893.876V261H889.881V263ZM897.871 263H901.866V261H897.871V263ZM905.861 263H909.855V261H905.861V263ZM913.85 263H917.845V261H913.85V263ZM921.84 263H925.835V261H921.84V263ZM929.83 263H933.825V261H929.83V263ZM937.82 263H941.814V261H937.82V263ZM945.809 263H949.804V261H945.809V263ZM953.799 263H957.794V261H953.799V263ZM961.789 263H965.784V261H961.789V263ZM969.778 263H973.773V261H969.778V263ZM977.768 263H981.763V261H977.768V263ZM985.758 263H989.753V261H985.758V263ZM993.748 263H997.743V261H993.748V263ZM1001.74 263H1005.73V261H1001.74V263ZM1009.73 263H1013.72V261H1009.73V263ZM1017.72 263H1021.71V261H1017.72V263ZM1025.71 263H1029.7V261H1025.71V263ZM1033.7 263H1037.69V261H1033.7V263ZM1041.69 263H1045.68V261H1041.69V263ZM1049.68 263H1053.67V261H1049.68V263ZM1057.67 263H1061.66V261H1057.67V263ZM1065.66 263H1069.65V261H1065.66V263ZM1073.65 263H1077.64V261H1073.65V263ZM1081.63 263H1085.63V261H1081.63V263ZM1089.62 263H1093.62V261H1089.62V263ZM1097.61 263H1101.61V261H1097.61V263ZM1105.6 263H1109.6V261H1105.6V263ZM1113.59 263H1117.59V261H1113.59V263ZM1121.58 263H1125.58V261H1121.58V263ZM1129.57 263H1133.57V261H1129.57V263ZM1137.56 263H1141.56V261H1137.56V263ZM1145.55 263H1149.55V261H1145.55V263ZM1153.54 263H1157.54V261H1153.54V263ZM1161.53 263H1165.53V261H1161.53V263ZM1169.52 263H1173.52V261H1169.52V263ZM1177.51 263H1181.51V261H1177.51V263ZM1185.5 263H1189.5V261H1185.5V263ZM1193.49 263H1197.49V261H1193.49V263ZM1201.48 263H1205.48V261H1201.48V263ZM1209.47 263H1213.47V261H1209.47V263ZM1217.46 263H1221.46V261H1217.46V263ZM1225.45 263H1229.45V261H1225.45V263ZM1233.44 263H1237.43V261H1233.44V263ZM1241.43 263H1245.42V261H1241.43V263ZM1249.42 263H1253.41V261H1249.42V263ZM1257.41 263H1261.4V261H1257.41V263ZM1265.4 263H1269.39V261H1265.4V263ZM1273.39 263H1277.38V261H1273.39V263ZM1281.38 263H1285.37V261H1281.38V263ZM1289.37 263H1293.36V261H1289.37V263ZM1297.36 263H1301.35V261H1297.36V263ZM1305.35 263H1309.34V261H1305.35V263ZM1313.34 263H1317.33V261H1313.34V263ZM1321.33 263H1325.32V261H1321.33V263ZM1329.32 263H1333.31V261H1329.32V263ZM1337.31 263H1341.3V261H1337.31V263ZM1345.3 263H1349.29V261H1345.3V263ZM1353.29 263H1357.28V261H1353.29V263ZM1361.28 263H1365.27V261H1361.28V263ZM1369.27 263H1373.26V261H1369.27V263ZM1377.26 263H1381.25V261H1377.26V263ZM1385.25 263H1389.24V261H1385.25V263ZM1393.23 263H1397.23V261H1393.23V263ZM1401.22 263H1405.22V261H1401.22V263ZM1409.21 263H1413.21V261H1409.21V263ZM1417.2 263H1421.2V261H1417.2V263ZM1425.19 263H1429.19V261H1425.19V263ZM1433.18 263H1437.18V261H1433.18V263ZM1441.17 263H1445.17V261H1441.17V263ZM1449.16 263H1453.16V261H1449.16V263ZM1457.15 263H1461.15V261H1457.15V263ZM1465.14 263H1469.14V261H1465.14V263ZM1473.13 263H1477.13V261H1473.13V263ZM1481.12 263H1485.12V261H1481.12V263ZM1489.11 263H1493.11V261H1489.11V263ZM1497.1 263H1501.1V261H1497.1V263ZM1505.09 263H1509.09V261H1505.09V263ZM1513.08 263H1517.08V261H1513.08V263ZM1521.07 263H1525.07V261H1521.07V263ZM1529.06 263H1533.06V261H1529.06V263ZM1537.05 263H1541.05V261H1537.05V263ZM1545.04 263H1549.04V261H1545.04V263ZM1553.03 263H1557.02V261H1553.03V263ZM1561.02 263H1565.01V261H1561.02V263ZM1569.01 263H1571V261H1569.01V263ZM1571 263C1571.69 263 1572.38 262.966 1573.06 262.9L1572.86 260.91C1572.25 260.969 1571.63 261 1571 261V263ZM1577.1 262.101C1578.43 261.698 1579.7 261.168 1580.9 260.523L1579.96 258.76C1578.87 259.343 1577.72 259.823 1576.52 260.187L1577.1 262.101ZM1584.32 258.233C1585.39 257.361 1586.36 256.385 1587.23 255.323L1585.69 254.053C1584.9 255.015 1584.02 255.898 1583.05 256.688L1584.32 258.233ZM1589.52 251.902C1590.17 250.699 1590.7 249.426 1591.1 248.098L1589.19 247.518C1588.82 248.719 1588.34 249.87 1587.76 250.957L1589.52 251.902ZM1591.9 244.058C1591.97 243.381 1592 242.694 1592 242H1590C1590 242.629 1589.97 243.251 1589.91 243.864L1591.9 244.058ZM1592 242V240.037H1590V242H1592ZM1592 236.113V232.188H1590V236.113H1592ZM1592 228.262V224.337H1590V228.262H1592ZM1592 220.412V216.488H1590V220.412H1592ZM1592 212.562V208.637H1590V212.562H1592ZM1592 204.712V200.788H1590V204.712H1592ZM1592 196.863V192.938H1590V196.863H1592ZM1592 189.013V185.088H1590V189.013H1592ZM1592 181.163V177.237H1590V181.163H1592ZM1592 173.312V169.387H1590V173.312H1592ZM1592 165.462V161.537H1590V165.462H1592ZM1592 157.612V153.687H1590V157.612H1592ZM1592 149.762V145.837H1590V149.762H1592ZM1592 141.912V137.987H1590V141.912H1592ZM1592 134.062V130.137H1590V134.062H1592ZM1592 126.212V122.287H1590V126.212H1592ZM1592 118.362V114.437H1590V118.362H1592ZM1592 110.512V106.587H1590V110.512H1592ZM1592 102.662V98.7374H1590V102.662H1592ZM1592 94.8124V90.8874H1590V94.8124H1592ZM1592 86.9624V85H1590V86.9624H1592ZM1592 85C1592 84.3059 1591.97 83.6194 1591.9 82.942L1589.91 83.1358C1589.97 83.7488 1590 84.3707 1590 85H1592ZM1591.1 78.9024C1590.7 77.5737 1590.17 76.3009 1589.52 75.0982L1587.76 76.0425C1588.34 77.1303 1588.82 78.2812 1589.19 79.4823L1591.1 78.9024ZM1587.23 71.6771C1586.36 70.6147 1585.39 69.6395 1584.32 68.7665L1583.05 70.3119C1584.02 71.1021 1584.9 71.985 1585.69 72.9468L1587.23 71.6771ZM1580.9 66.4765C1579.7 65.8324 1578.43 65.3018 1577.1 64.8992L1576.52 66.8133C1577.72 67.1772 1578.87 67.6569 1579.96 68.2395L1580.9 66.4765ZM1573.06 64.0996C1572.38 64.0337 1571.69 64 1571 64V66C1571.63 66 1572.25 66.0306 1572.86 66.0902L1573.06 64.0996ZM1571 64H1569.15V66H1571V64ZM1565.45 64H1561.75V66H1565.45V64ZM1558.05 64H1554.35V66H1558.05V64ZM1550.65 64H1546.95V66H1550.65V64ZM1543.25 64H1539.55V66H1543.25V64ZM1535.85 64H1534V66H1535.85V64Z" fill="#AAAAAA"></path><circle cx="796" cy="262" r="39" fill="#F5F5F5" stroke="#222222" stroke-width="2"></circle><path d="M805.68 268.88C805.68 270.16 805.36 271.387 804.72 272.56C804.08 273.707 803.133 274.667 801.88 275.44C800.653 276.213 799.173 276.653 797.44 276.76V280H795.28V276.76C792.853 276.547 790.88 275.773 789.36 274.44C787.84 273.08 787.067 271.36 787.04 269.28H790.92C791.027 270.4 791.44 271.373 792.16 272.2C792.907 273.027 793.947 273.547 795.28 273.76V263.76C793.493 263.307 792.053 262.84 790.96 262.36C789.867 261.88 788.933 261.133 788.16 260.12C787.387 259.107 787 257.747 787 256.04C787 253.88 787.747 252.093 789.24 250.68C790.76 249.267 792.773 248.48 795.28 248.32V245H797.44V248.32C799.707 248.507 801.533 249.24 802.92 250.52C804.307 251.773 805.107 253.413 805.32 255.44H801.44C801.307 254.507 800.893 253.667 800.2 252.92C799.507 252.147 798.587 251.64 797.44 251.4V261.16C799.2 261.613 800.627 262.08 801.72 262.56C802.84 263.013 803.773 263.747 804.52 264.76C805.293 265.773 805.68 267.147 805.68 268.88ZM790.72 255.84C790.72 257.147 791.107 258.147 791.88 258.84C792.653 259.533 793.787 260.107 795.28 260.56V251.32C793.893 251.453 792.787 251.907 791.96 252.68C791.133 253.427 790.72 254.48 790.72 255.84ZM797.44 273.8C798.88 273.64 800 273.12 800.8 272.24C801.627 271.36 802.04 270.307 802.04 269.08C802.04 267.773 801.64 266.773 800.84 266.08C800.04 265.36 798.907 264.787 797.44 264.36V273.8Z" fill="#222222"></path></svg>